Mekorot-Rashi-Italic.ufo
<glyph name="quotedbl" format="2">
  <advance width="541"/>
  <unicode hex="0022"/>
  <outline>
    <contour>
      <point x="365.4" y="377.3" type="curve"/>
      <point x="375.9" y="401.8"/>
      <point x="392.7" y="427"/>
      <point x="406" y="450.8" type="curve" smooth="yes"/>
      <point x="483" y="589.4" type="line"/>
      <point x="518" y="651.7" type="line" smooth="yes"/>
      <point x="524.3" y="663.6"/>
      <point x="530.6" y="676.9"/>
      <point x="541.8" y="687.4" type="curve" smooth="yes"/>
      <point x="557.9" y="702.8"/>
      <point x="577.5" y="706.3"/>
      <point x="596.4" y="706.3" type="curve" smooth="yes"/>
      <point x="611.8" y="706.3"/>
      <point x="627.2" y="704.2"/>
      <point x="640.5" y="702.8" type="curve" smooth="yes"/>
      <point x="655.9" y="702.1"/>
      <point x="668.5" y="704.2"/>
      <point x="679" y="694.4" type="curve"/>
      <point x="669.9" y="676.9"/>
      <point x="665.7" y="660.1"/>
      <point x="654.5" y="643.3" type="curve" smooth="yes"/>
      <point x="634.2" y="613.2"/>
      <point x="606.2" y="586.6"/>
      <point x="580.3" y="560" type="curve" smooth="yes"/>
      <point x="482.3" y="457.1" type="line"/>
      <point x="427" y="400.4" type="line" smooth="yes"/>
      <point x="420.7" y="394.1"/>
      <point x="412.3" y="382.2"/>
      <point x="404.6" y="378" type="curve"/>
      <point x="400.4" y="376.6"/>
      <point x="395.5" y="375.9"/>
      <point x="389.9" y="375.9" type="curve" smooth="yes"/>
      <point x="380.8" y="375.9"/>
      <point x="371.7" y="377.3"/>
    </contour>
    <contour>
      <point x="142.8" y="377.3" type="line"/>
      <point x="177.8" y="448"/>
      <point x="220.5" y="518"/>
      <point x="259" y="588" type="curve" smooth="yes"/>
      <point x="294" y="651.7" type="line" smooth="yes"/>
      <point x="300.3" y="662.9"/>
      <point x="306.6" y="675.5"/>
      <point x="316.4" y="685.3" type="curve" smooth="yes"/>
      <point x="333.9" y="702.1"/>
      <point x="352.8" y="705.6"/>
      <point x="372.4" y="705.6" type="curve" smooth="yes"/>
      <point x="388.5" y="705.6"/>
      <point x="404.6" y="703.5"/>
      <point x="418.6" y="702.8" type="curve" smooth="yes"/>
      <point x="420" y="702.8" type="line"/>
      <point x="432.6" y="702.8" type="line" smooth="yes"/>
      <point x="442.4" y="702.8"/>
      <point x="452.9" y="702.1"/>
      <point x="455" y="693.7" type="curve"/>
      <point x="455.7" y="692.3"/>
      <point x="455.7" y="690.9"/>
      <point x="455" y="688.8" type="curve" smooth="yes"/>
      <point x="452.9" y="682.5"/>
      <point x="448.7" y="674.1"/>
      <point x="446.6" y="669.9" type="curve" smooth="yes"/>
      <point x="434.7" y="644.7"/>
      <point x="416.5" y="622.3"/>
      <point x="396.2" y="600.6" type="curve" smooth="yes"/>
      <point x="242.2" y="439.6" type="line"/>
      <point x="200.2" y="395.5" type="line" smooth="yes"/>
      <point x="195.3" y="390.6"/>
      <point x="189" y="381.5"/>
      <point x="182.7" y="378" type="curve" smooth="yes"/>
      <point x="180.6" y="377.3"/>
      <point x="178.5" y="377.3"/>
      <point x="176.4" y="377.3" type="curve" smooth="yes"/>
      <point x="170.1" y="377.3" type="line"/>
    </contour>
  </outline>
</glyph>
<glyph name="numbersign" format="2">
  <advance width="580"/>
  <unicode hex="0023"/>
  <outline>
    <contour>
      <point x="351.4" y="460.6" type="line"/>
      <point x="296.1" y="318.5" type="line"/>
      <point x="439.6" y="316.4" type="line"/>
      <point x="492.1" y="455.7" type="line"/>
    </contour>
    <contour>
      <point x="401.8" y="758.1" type="curve"/>
      <point x="474.6" y="758.1" type="line"/>
      <point x="448" y="682.5"/>
      <point x="403.9" y="608.3"/>
      <point x="378" y="532.7" type="curve"/>
      <point x="522.2" y="532.7" type="line"/>
      <point x="548.1" y="608.3"/>
      <point x="592.2" y="682.5"/>
      <point x="618.1" y="758.1" type="curve"/>
      <point x="690.2" y="758.1" type="line"/>
      <point x="644.7" y="650.3" type="line"/>
      <point x="595" y="532.7" type="line"/>
      <point x="712.6" y="532.7" type="line"/>
      <point x="693.7" y="462" type="line"/>
      <point x="567" y="462" type="line"/>
      <point x="508.9" y="315.7" type="line"/>
      <point x="626.5" y="315.7" type="line"/>
      <point x="606.9" y="245" type="line"/>
      <point x="480.9" y="245" type="line"/>
      <point x="445.9" y="160.3" type="line"/>
      <point x="379.4" y="0" type="line"/>
      <point x="308" y="0" type="line"/>
      <point x="331.1" y="56.7002" type="line"/>
      <point x="382.9" y="182.7" type="line"/>
      <point x="408.1" y="245" type="line"/>
      <point x="254.1" y="245" type="line"/>
      <point x="228.9" y="182.7" type="line"/>
      <point x="179.2" y="61.5996" type="line"/>
      <point x="161" y="16.7998" type="line"/>
      <point x="153.3" y="0.700195" type="line"/>
      <point x="134.4" y="0" type="line"/>
      <point x="81.9004" y="0" type="line"/>
      <point x="90.2998" y="32.2002"/>
      <point x="108.5" y="67.2002"/>
      <point x="122.5" y="99.4004" type="curve" smooth="yes"/>
      <point x="142.8" y="147.7"/>
      <point x="161" y="196.7"/>
      <point x="183.4" y="245" type="curve"/>
      <point x="65.7998" y="245" type="line"/>
      <point x="84.7002" y="315.7" type="line"/>
      <point x="220.5" y="315.7" type="line"/>
      <point x="277.2" y="462" type="line"/>
      <point x="151.9" y="462" type="line"/>
      <point x="170.8" y="532.7" type="line"/>
      <point x="305.2" y="532.7" type="line"/>
      <point x="331.1" y="608.3"/>
      <point x="375.2" y="682.5"/>
    </contour>
  </outline>
</glyph>
<glyph name="dollar" format="2">
  <advance width="501"/>
  <unicode hex="0024"/>
  <outline>
    <contour>
      <point x="338.1" y="573.3" type="curve"/>
      <point x="299.6" y="428.4" type="line" smooth="yes"/>
      <point x="298.9" y="425.6"/>
      <point x="297.5" y="424.9"/>
      <point x="295.4" y="424.9" type="curve" smooth="yes"/>
      <point x="289.8" y="424.9"/>
      <point x="279.3" y="438.2"/>
      <point x="281.4" y="447.3" type="curve" smooth="yes"/>
      <point x="285.6" y="463.4"/>
      <point x="268.1" y="466.9"/>
      <point x="272.3" y="483" type="curve" smooth="yes"/>
      <point x="275.8" y="495.6"/>
      <point x="281.4" y="501.9"/>
      <point x="284.9" y="514.5" type="curve" smooth="yes"/>
      <point x="288.4" y="526.4"/>
      <point x="300.3" y="532"/>
      <point x="303.1" y="543.9" type="curve" smooth="yes"/>
      <point x="305.9" y="553"/>
      <point x="323.4" y="549.5"/>
      <point x="326.2" y="558.6" type="curve" smooth="yes"/>
      <point x="327.6" y="564.2"/>
      <point x="336" y="574.7"/>
      <point x="338.1" y="574.7" type="curve" smooth="yes"/>
      <point x="338.8" y="574.7"/>
      <point x="338.8" y="574.7"/>
    </contour>
    <contour>
      <point x="380.8" y="581.7" type="line"/>
      <point x="336" y="415.8" type="line"/>
      <point x="363.3" y="392.7" type="line"/>
      <point x="423.5" y="585.9" type="line"/>
    </contour>
    <contour>
      <point x="292.6" y="254.1" type="line"/>
      <point x="326.9" y="233.1" type="line"/>
      <point x="271.6" y="42" type="line"/>
      <point x="234.5" y="37.7998" type="line"/>
    </contour>
    <contour>
      <point x="360.5" y="210" type="curve"/>
      <point x="315.7" y="42" type="line"/>
      <point x="336" y="53.2002"/>
      <point x="352.1" y="53.9004"/>
      <point x="367.5" y="71.4004" type="curve" smooth="yes"/>
      <point x="378" y="83.2998"/>
      <point x="382.2" y="93.0996"/>
      <point x="385" y="105" type="curve" smooth="yes"/>
      <point x="389.2" y="119.7" type="line"/>
      <point x="389.9" y="123.9" type="line" smooth="yes"/>
      <point x="392" y="131.6"/>
      <point x="394.8" y="137.9"/>
      <point x="396.2" y="143.5" type="curve" smooth="yes"/>
      <point x="399" y="154"/>
      <point x="400.4" y="163.1"/>
      <point x="397.6" y="174.3" type="curve" smooth="yes"/>
      <point x="392.7" y="192.5"/>
      <point x="382.2" y="197.4"/>
      <point x="368.9" y="210" type="curve" smooth="yes"/>
      <point x="366.8" y="212.1"/>
      <point x="364" y="210"/>
    </contour>
    <contour>
      <point x="364" y="665" type="line"/>
      <point x="351.4" y="617.4" type="line"/>
      <point x="338.8" y="615.3"/>
      <point x="324.8" y="609"/>
      <point x="312.2" y="604.1" type="curve" smooth="yes"/>
      <point x="243.6" y="576.1"/>
      <point x="190.4" y="512.4"/>
      <point x="172.9" y="448" type="curve" smooth="yes"/>
      <point x="163.8" y="413.7"/>
      <point x="164.5" y="379.4"/>
      <point x="178.5" y="350" type="curve" smooth="yes"/>
      <point x="189.7" y="326.9"/>
      <point x="205.8" y="307.3"/>
      <point x="226.1" y="292.6" type="curve" smooth="yes"/>
      <point x="233.1" y="287"/>
      <point x="240.8" y="282.8"/>
      <point x="248.5" y="278.6" type="curve" smooth="yes"/>
      <point x="252" y="277.2"/>
      <point x="257.6" y="275.8"/>
      <point x="258.3" y="272.3" type="curve" smooth="yes"/>
      <point x="258.3" y="269.5"/>
      <point x="257.6" y="266.7"/>
      <point x="256.9" y="263.9" type="curve" smooth="yes"/>
      <point x="255.5" y="259.7"/>
      <point x="254.1" y="254.8"/>
      <point x="252.7" y="250.6" type="curve" smooth="yes"/>
      <point x="240.1" y="203" type="line"/>
      <point x="195.3" y="35.7002" type="line"/>
      <point x="186.9" y="40.5996"/>
      <point x="178.5" y="43.4004"/>
      <point x="174.3" y="52.5" type="curve" smooth="yes"/>
      <point x="159.6" y="86.7998"/>
      <point x="196.7" y="138.6"/>
      <point x="165.9" y="165.2" type="curve" smooth="yes"/>
      <point x="161.7" y="169.4"/>
      <point x="156.8" y="172.2"/>
      <point x="151.9" y="174.3" type="curve" smooth="yes"/>
      <point x="147" y="175.7"/>
      <point x="142.1" y="176.4"/>
      <point x="136.5" y="176.4" type="curve" smooth="yes"/>
      <point x="118.3" y="176.4"/>
      <point x="97.2998" y="166.6"/>
      <point x="84.7002" y="149.8" type="curve" smooth="yes"/>
      <point x="79.7998" y="142.8"/>
      <point x="76.2998" y="135.1"/>
      <point x="74.2002" y="126.7" type="curve" smooth="yes"/>
      <point x="71.4004" y="117.6"/>
      <point x="70.7002" y="108.5"/>
      <point x="71.4004" y="100.8" type="curve" smooth="yes"/>
      <point x="76.2998" y="43.4004"/>
      <point x="120.4" y="-4.2002"/>
      <point x="182" y="-7" type="curve"/>
      <point x="154.7" y="-107.8" type="line"/>
      <point x="193.9" y="-107.8" type="line"/>
      <point x="218.4" y="-16.7998" type="line"/>
      <point x="263.2" y="-16.7998" type="line"/>
      <point x="238.7" y="-107.8" type="line"/>
      <point x="274.4" y="-107.8" type="line"/>
      <point x="293.3" y="-37.7998" type="line" smooth="yes"/>
      <point x="294" y="-34.2998"/>
      <point x="295.4" y="-27.2998"/>
      <point x="296.8" y="-21" type="curve" smooth="yes"/>
      <point x="297.5" y="-16.7998"/>
      <point x="298.9" y="-13.2998"/>
      <point x="301" y="-11.2002" type="curve" smooth="yes"/>
      <point x="305.9" y="-6.2998"/>
      <point x="322.7" y="-3.5"/>
      <point x="329" y="-1.40039" type="curve" smooth="yes"/>
      <point x="347.9" y="4.90039"/>
      <point x="366.8" y="12.5996"/>
      <point x="384.3" y="23.7998" type="curve" smooth="yes"/>
      <point x="450.8" y="66.5"/>
      <point x="489.3" y="135.8"/>
      <point x="507.5" y="203" type="curve" smooth="yes"/>
      <point x="508.2" y="207.2" type="line" smooth="yes"/>
      <point x="522.9" y="263.2"/>
      <point x="489.3" y="313.6"/>
      <point x="453.6" y="343" type="curve" smooth="yes"/>
      <point x="443.8" y="351.4"/>
      <point x="432.6" y="358.4"/>
      <point x="422.1" y="366.1" type="curve" smooth="yes"/>
      <point x="417.9" y="368.9"/>
      <point x="409.5" y="371"/>
      <point x="408.1" y="375.9" type="curve" smooth="yes"/>
      <point x="407.4" y="377.3"/>
      <point x="407.4" y="380.1"/>
      <point x="408.1" y="382.9" type="curve"/>
      <point x="409.5" y="385.7"/>
      <point x="410.9" y="389.2"/>
      <point x="410.9" y="392" type="curve"/>
      <point x="422.1" y="431.9" type="line"/>
      <point x="462" y="580.3" type="line"/>
      <point x="466.9" y="580.3"/>
      <point x="471.1" y="579.6"/>
      <point x="476" y="578.2" type="curve" smooth="yes"/>
      <point x="492.1" y="572.6"/>
      <point x="492.8" y="559.3"/>
      <point x="491.4" y="542.5" type="curve" smooth="yes"/>
      <point x="487.9" y="513.8"/>
      <point x="466.2" y="464.1"/>
      <point x="499.8" y="453.6" type="curve" smooth="yes"/>
      <point x="503.3" y="452.2"/>
      <point x="508.2" y="452.2"/>
      <point x="512.4" y="452.2" type="curve" smooth="yes"/>
      <point x="519.4" y="452.2" type="line" smooth="yes"/>
      <point x="548.8" y="453.6"/>
      <point x="567" y="479.5"/>
      <point x="574" y="506.1" type="curve" smooth="yes"/>
      <point x="577.5" y="518.7"/>
      <point x="578.2" y="531.3"/>
      <point x="576.8" y="541.8" type="curve" smooth="yes"/>
      <point x="569.1" y="576.8"/>
      <point x="536.9" y="599.9"/>
      <point x="506.1" y="613.9" type="curve" smooth="yes"/>
      <point x="495.6" y="618.8"/>
      <point x="485.1" y="623.7"/>
      <point x="473.9" y="625.1" type="curve"/>
      <point x="484.4" y="665" type="line"/>
      <point x="448.7" y="665" type="line"/>
      <point x="438.9" y="629.3" type="line"/>
      <point x="391.3" y="629.3" type="line"/>
      <point x="401.1" y="665" type="line"/>
    </contour>
  </outline>
</glyph>
<glyph name="quotesingle" format="2">
  <advance width="308"/>
  <unicode hex="0027"/>
  <outline>
    <contour>
      <point x="149.8" y="375.2" type="line"/>
      <point x="160.3" y="399.7"/>
      <point x="175.7" y="423.5"/>
      <point x="189" y="447.3" type="curve" smooth="yes"/>
      <point x="267.4" y="592.9" type="line"/>
      <point x="305.2" y="662.2" type="line" smooth="yes"/>
      <point x="310.1" y="671.3"/>
      <point x="314.3" y="683.2"/>
      <point x="322" y="690.9" type="curve" smooth="yes"/>
      <point x="331.8" y="701.4"/>
      <point x="345.8" y="702.8"/>
      <point x="357.7" y="704.9" type="curve" smooth="yes"/>
      <point x="373.1" y="707"/>
      <point x="387.8" y="708.4"/>
      <point x="401.8" y="708.4" type="curve" smooth="yes"/>
      <point x="410.2" y="708.4"/>
      <point x="418.6" y="707.7"/>
      <point x="427.7" y="706.3" type="curve" smooth="yes"/>
      <point x="435.4" y="705.6"/>
      <point x="452.9" y="703.5"/>
      <point x="455.7" y="696.5" type="curve" smooth="yes"/>
      <point x="456.4" y="695.1"/>
      <point x="456.4" y="692.3"/>
      <point x="455.7" y="689.5" type="curve" smooth="yes"/>
      <point x="454.3" y="683.2"/>
      <point x="450.1" y="675.5"/>
      <point x="448" y="672" type="curve" smooth="yes"/>
      <point x="437.5" y="646.8"/>
      <point x="421.4" y="624.4"/>
      <point x="402.5" y="602.7" type="curve" smooth="yes"/>
      <point x="355.6" y="550.2"/>
      <point x="303.8" y="500.5"/>
      <point x="256.2" y="448" type="curve" smooth="yes"/>
      <point x="210.7" y="398.3" type="line" smooth="yes"/>
      <point x="205.1" y="392"/>
      <point x="197.4" y="380.8"/>
      <point x="189.7" y="376.6" type="curve" smooth="yes"/>
      <point x="186.2" y="374.5"/>
      <point x="181.3" y="375.2"/>
      <point x="178.5" y="375.2" type="curve" smooth="yes"/>
    </contour>
  </outline>
</glyph>
<glyph name="parenleft" format="2">
  <advance width="387"/>
  <unicode hex="0028"/>
  <outline>
    <contour>
      <point x="264.6" y="-230.3" type="curve"/>
      <point x="247.1" y="-226.8"/>
      <point x="230.3" y="-210"/>
      <point x="217.7" y="-199.5" type="curve" smooth="yes"/>
      <point x="173.6" y="-163.1"/>
      <point x="143.5" y="-114.1"/>
      <point x="123.9" y="-59.5" type="curve" smooth="yes"/>
      <point x="99.4004" y="9.09961"/>
      <point x="96.5996" y="86.7998"/>
      <point x="106.4" y="166.6" type="curve" smooth="yes"/>
      <point x="110.6" y="197.4"/>
      <point x="116.2" y="229.6"/>
      <point x="125.3" y="261.1" type="curve" smooth="yes"/>
      <point x="156.8" y="379.4"/>
      <point x="221.2" y="494.9"/>
      <point x="324.8" y="589.4" type="curve" smooth="yes"/>
      <point x="366.1" y="626.5"/>
      <point x="410.2" y="658.7"/>
      <point x="457.8" y="685.3" type="curve" smooth="yes"/>
      <point x="473.9" y="694.4"/>
      <point x="496.3" y="708.4"/>
      <point x="513.8" y="711.9" type="curve"/>
      <point x="524.3" y="687.4" type="line"/>
      <point x="501.2" y="674.1"/>
      <point x="479.5" y="660.8"/>
      <point x="458.5" y="643.3" type="curve" smooth="yes"/>
      <point x="359.1" y="562.8"/>
      <point x="310.1" y="454.3"/>
      <point x="273.7" y="347.2" type="curve" smooth="yes"/>
      <point x="263.2" y="316.4"/>
      <point x="254.1" y="285.6"/>
      <point x="245.7" y="254.8" type="curve" smooth="yes"/>
      <point x="240.8" y="235.9"/>
      <point x="235.9" y="216.3"/>
      <point x="231.7" y="197.4" type="curve" smooth="yes"/>
      <point x="215.6" y="125.3"/>
      <point x="198.1" y="54.5996"/>
      <point x="202.3" y="-14.7002" type="curve" smooth="yes"/>
      <point x="205.8" y="-64.4004"/>
      <point x="217.7" y="-109.9"/>
      <point x="242.2" y="-149.8" type="curve" smooth="yes"/>
      <point x="250.6" y="-163.1"/>
      <point x="261.1" y="-175"/>
      <point x="271.6" y="-186.2" type="curve" smooth="yes"/>
      <point x="275.8" y="-190.4"/>
      <point x="286.3" y="-195.3"/>
      <point x="287" y="-201.6" type="curve" smooth="yes"/>
      <point x="287" y="-203" type="line"/>
      <point x="284.9" y="-210.7"/>
      <point x="268.8" y="-224.7"/>
    </contour>
  </outline>
</glyph>
<glyph name="plus" format="2">
  <advance width="854"/>
  <unicode hex="002B"/>
  <outline>
    <contour>
      <point x="569.1" y="625.1" type="line"/>
      <point x="652.4" y="625.1" type="line"/>
      <point x="574" y="331.8" type="line"/>
      <point x="862.4" y="331.8" type="line"/>
      <point x="840" y="247.8" type="line"/>
      <point x="551.6" y="247.8" type="line"/>
      <point x="473.2" y="-45.5" type="line"/>
      <point x="389.2" y="-45.5" type="line"/>
      <point x="468.3" y="247.8" type="line"/>
      <point x="189" y="247.8" type="line"/>
      <point x="211.4" y="331.8" type="line"/>
      <point x="490.7" y="331.8" type="line"/>
    </contour>
  </outline>
</glyph>
<glyph name="slash" format="2">
  <advance width="501"/>
  <unicode hex="002F"/>
  <outline>
    <contour>
      <point x="45.5" y="-16.7998" type="line"/>
      <point x="52.5" y="-3.5"/>
      <point x="64.4004" y="8.40039"/>
      <point x="73.5" y="21.7002" type="curve" smooth="yes"/>
      <point x="152.6" y="125.3" type="line"/>
      <point x="407.4" y="462" type="line"/>
      <point x="506.8" y="592.2" type="line"/>
      <point x="534.8" y="630" type="line" smooth="yes"/>
      <point x="539" y="634.9"/>
      <point x="543.2" y="642.6"/>
      <point x="548.1" y="646.1" type="curve" smooth="yes"/>
      <point x="550.9" y="647.5"/>
      <point x="555.1" y="648.2"/>
      <point x="559.3" y="648.2" type="curve" smooth="yes"/>
      <point x="565.6" y="648.2"/>
      <point x="571.2" y="647.5"/>
      <point x="574.7" y="647.5" type="curve" smooth="yes"/>
      <point x="648.9" y="647.5" type="line"/>
      <point x="640.5" y="632.1"/>
      <point x="625.8" y="617.4"/>
      <point x="615.3" y="602.7" type="curve" smooth="yes"/>
      <point x="537.6" y="500.5" type="line"/>
      <point x="298.9" y="185.5" type="line"/>
      <point x="190.4" y="42.7002" type="line"/>
      <point x="160.3" y="2.7998" type="line" smooth="yes"/>
      <point x="156.1" y="-2.09961"/>
      <point x="151.9" y="-11.2002"/>
      <point x="146.3" y="-14.7002" type="curve" smooth="yes"/>
      <point x="143.5" y="-16.7998"/>
      <point x="139.3" y="-17.5"/>
      <point x="134.4" y="-17.5" type="curve" smooth="yes"/>
      <point x="128.8" y="-17.5"/>
      <point x="122.5" y="-16.7998"/>
      <point x="119" y="-16.7998" type="curve" smooth="yes"/>
    </contour>
  </outline>
</glyph>
<glyph name="zero" format="2">
  <advance width="501"/>
  <unicode hex="0030"/>
  <outline>
    <contour>
      <point x="402.5" y="602" type="line"/>
      <point x="371.7" y="596.4" type="line"/>
      <point x="305.9" y="481.6" type="line"/>
      <point x="262.5" y="320.6" type="line"/>
      <point x="254.8" y="264.6" type="line"/>
      <point x="235.2" y="120.4" type="line"/>
      <point x="247.1" y="47.5996" type="line"/>
      <point x="281.4" y="36.4004" type="line"/>
      <point x="308.7" y="47.5996" type="line"/>
      <point x="375.2" y="171.5" type="line"/>
      <point x="393.4" y="232.4" type="line"/>
      <point x="411.6" y="301" type="line"/>
      <point x="423.5" y="353.5" type="line"/>
      <point x="433.3" y="428.4" type="line"/>
      <point x="437.5" y="549.5" type="line"/>
      <point x="425.6" y="588" type="line"/>
    </contour>
    <contour>
      <point x="428.4" y="306.6" type="line" smooth="yes"/>
    </contour>
    <contour>
      <point x="414.4" y="653.8" type="curve" smooth="yes"/>
      <point x="420.7" y="654.5"/>
      <point x="426.3" y="655.2"/>
      <point x="431.9" y="655.2" type="curve" smooth="yes"/>
      <point x="515.2" y="655.2"/>
      <point x="560" y="571.9"/>
      <point x="567" y="500.5" type="curve" smooth="yes"/>
      <point x="573.3" y="442.4"/>
      <point x="567.7" y="378"/>
      <point x="550.9" y="313.6" type="curve" smooth="yes"/>
      <point x="532.7" y="247.1"/>
      <point x="501.9" y="180.6"/>
      <point x="456.4" y="121.8" type="curve" smooth="yes"/>
      <point x="435.4" y="93.0996"/>
      <point x="410.9" y="64.4004"/>
      <point x="382.9" y="42" type="curve" smooth="yes"/>
      <point x="349.3" y="15.4004"/>
      <point x="308.7" y="0.700195"/>
      <point x="270.9" y="-4.90039" type="curve" smooth="yes"/>
      <point x="258.3" y="-6.2998"/>
      <point x="243.6" y="-7.7002"/>
      <point x="229.6" y="-7.7002" type="curve" smooth="yes"/>
      <point x="220.5" y="-7.7002"/>
      <point x="211.4" y="-7"/>
      <point x="203.7" y="-5.59961" type="curve" smooth="yes"/>
      <point x="127.4" y="11.9004"/>
      <point x="110.6" y="93.0996"/>
      <point x="108.5" y="164.5" type="curve" smooth="yes"/>
      <point x="106.4" y="219.8"/>
      <point x="112" y="279.3"/>
      <point x="128.1" y="338.8" type="curve" smooth="yes"/>
      <point x="147" y="409.5"/>
      <point x="181.3" y="480.2"/>
      <point x="234.5" y="541.8" type="curve" smooth="yes"/>
      <point x="282.8" y="597.8"/>
      <point x="345.1" y="644.7"/>
    </contour>
  </outline>
</glyph>
<glyph name="two" format="2">
  <advance width="501"/>
  <unicode hex="0032"/>
  <outline>
    <contour>
      <point x="196" y="96.5996" type="line"/>
      <point x="196.7" y="95.2002" type="line"/>
    </contour>
    <contour>
      <point x="172.9" y="475.3" type="line"/>
      <point x="191.1" y="506.1"/>
      <point x="212.8" y="529.9"/>
      <point x="238" y="555.8" type="curve" smooth="yes"/>
      <point x="250.6" y="568.4"/>
      <point x="261.1" y="582.4"/>
      <point x="274.4" y="593.6" type="curve" smooth="yes"/>
      <point x="298.9" y="614.6"/>
      <point x="331.8" y="630"/>
      <point x="361.2" y="639.8" type="curve" smooth="yes"/>
      <point x="391.3" y="649.6"/>
      <point x="425.6" y="655.9"/>
      <point x="458.5" y="655.9" type="curve" smooth="yes"/>
      <point x="488.6" y="655.9"/>
      <point x="516.6" y="651"/>
      <point x="539" y="639.1" type="curve" smooth="yes"/>
      <point x="596.4" y="609.7"/>
      <point x="611.8" y="539"/>
      <point x="593.6" y="469.7" type="curve" smooth="yes"/>
      <point x="587.3" y="450.1" type="line" smooth="yes"/>
      <point x="557.9" y="369.6"/>
      <point x="483.7" y="308"/>
      <point x="413.7" y="255.5" type="curve" smooth="yes"/>
      <point x="303.8" y="172.2" type="line"/>
      <point x="196.7" y="96.5996" type="line"/>
      <point x="228.9" y="105.7"/>
      <point x="260.4" y="109.2"/>
      <point x="291.2" y="109.2" type="curve" smooth="yes"/>
      <point x="302.4" y="109.2"/>
      <point x="314.3" y="108.5"/>
      <point x="325.5" y="107.8" type="curve" smooth="yes"/>
      <point x="342.3" y="106.4"/>
      <point x="360.5" y="104.3"/>
      <point x="378.7" y="104.3" type="curve" smooth="yes"/>
      <point x="385" y="104.3"/>
      <point x="392" y="104.3"/>
      <point x="398.3" y="105" type="curve" smooth="yes"/>
      <point x="415.1" y="107.8"/>
      <point x="433.3" y="118.3"/>
      <point x="446.6" y="130.2" type="curve" smooth="yes"/>
      <point x="451.5" y="135.1"/>
      <point x="457.8" y="145.6"/>
      <point x="464.1" y="148.4" type="curve" smooth="yes"/>
      <point x="466.2" y="149.8"/>
      <point x="468.3" y="149.8"/>
      <point x="471.1" y="149.8" type="curve" smooth="yes"/>
      <point x="478.8" y="149.8" type="line"/>
      <point x="512.4" y="149.8" type="line"/>
      <point x="424.9" y="-7" type="line"/>
      <point x="34.2998" y="-7" type="line"/>
      <point x="36.4004" y="1.40039"/>
      <point x="37.7998" y="12.5996"/>
      <point x="40.5996" y="23.0996" type="curve" smooth="yes"/>
      <point x="42" y="28.7002"/>
      <point x="44.0996" y="34.2998"/>
      <point x="46.9004" y="39.2002" type="curve" smooth="yes"/>
      <point x="53.2002" y="48.2998"/>
      <point x="70.7002" y="58.0996"/>
      <point x="79.7998" y="65.0996" type="curve" smooth="yes"/>
      <point x="106.4" y="86.0996"/>
      <point x="134.4" y="107.1"/>
      <point x="161" y="129.5" type="curve" smooth="yes"/>
      <point x="235.9" y="193.2"/>
      <point x="311.5" y="253.4"/>
      <point x="375.2" y="328.3" type="curve" smooth="yes"/>
      <point x="399.7" y="357.7"/>
      <point x="426.3" y="389.2"/>
      <point x="440.3" y="422.8" type="curve" smooth="yes"/>
      <point x="443.8" y="430.5"/>
      <point x="446.6" y="438.2"/>
      <point x="448.7" y="445.9" type="curve" smooth="yes"/>
      <point x="455" y="469.7"/>
      <point x="455.7" y="493.5"/>
      <point x="449.4" y="513.1" type="curve" smooth="yes"/>
      <point x="438.2" y="546.7"/>
      <point x="406.7" y="568.4"/>
      <point x="368.9" y="568.4" type="curve" smooth="yes"/>
      <point x="357.7" y="568.4"/>
      <point x="345.8" y="566.3"/>
      <point x="333.2" y="562.8" type="curve" smooth="yes"/>
      <point x="286.3" y="546.7"/>
      <point x="245" y="497.7"/>
      <point x="214.2" y="459.2" type="curve"/>
    </contour>
  </outline>
</glyph>
<glyph name="four" format="2">
  <advance width="501"/>
  <unicode hex="0034"/>
  <outline>
    <contour>
      <point x="361.2" y="453.6" type="line"/>
      <point x="150.5" y="227.5" type="line"/>
      <point x="304.5" y="227.5" type="line"/>
    </contour>
    <contour>
      <point x="73.5" y="166.6" type="line"/>
      <point x="84.7002" y="207.9" type="line"/>
      <point x="91" y="228.2" type="line"/>
      <point x="120.4" y="260.4" type="line"/>
      <point x="180.6" y="325.5" type="line"/>
      <point x="371.7" y="530.6" type="line"/>
      <point x="450.1" y="615.3" type="line"/>
      <point x="485.8" y="652.4" type="line"/>
      <point x="504.7" y="654.5" type="line"/>
      <point x="555.8" y="654.5" type="line"/>
      <point x="471.8" y="342.3" type="line"/>
      <point x="449.4" y="259.7" type="line" smooth="yes"/>
      <point x="448.7" y="254.8"/>
      <point x="445.2" y="247.1"/>
      <point x="443.1" y="240.1" type="curve"/>
      <point x="442.4" y="235.2"/>
      <point x="441.7" y="231.7"/>
      <point x="442.4" y="228.9" type="curve"/>
      <point x="443.8" y="226.1"/>
      <point x="446.6" y="225.4"/>
      <point x="450.1" y="225.4" type="curve" smooth="yes"/>
      <point x="455" y="225.4"/>
      <point x="461.3" y="226.8"/>
      <point x="464.8" y="228.9" type="curve" smooth="yes"/>
      <point x="482.3" y="236.6"/>
      <point x="497" y="253.4"/>
      <point x="503.3" y="270.2" type="curve"/>
      <point x="544.6" y="270.2" type="line"/>
      <point x="505.4" y="166.6" type="line"/>
      <point x="424.9" y="166.6" type="line"/>
      <point x="409.5" y="116.2" type="line" smooth="yes"/>
      <point x="405.3" y="100.8"/>
      <point x="402.5" y="85.4004"/>
      <point x="403.9" y="70.7002" type="curve" smooth="yes"/>
      <point x="404.6" y="57.4004"/>
      <point x="409.5" y="42"/>
      <point x="422.1" y="35.7002" type="curve" smooth="yes"/>
      <point x="425.6" y="34.2998"/>
      <point x="431.2" y="33.5996"/>
      <point x="437.5" y="33.5996" type="curve" smooth="yes"/>
      <point x="446.6" y="33.5996"/>
      <point x="457.8" y="35"/>
      <point x="465.5" y="35" type="curve"/>
      <point x="453.6" y="-9.7998" type="line"/>
      <point x="161" y="-9.7998" type="line"/>
      <point x="172.2" y="32.2002" type="line"/>
      <point x="192.5" y="32.2002"/>
      <point x="224.7" y="33.5996"/>
      <point x="244.3" y="49.7002" type="curve" smooth="yes"/>
      <point x="254.1" y="58.0996"/>
      <point x="259.7" y="72.0996"/>
      <point x="263.9" y="82.5996" type="curve" smooth="yes"/>
      <point x="268.1" y="91.7002"/>
      <point x="270.9" y="100.8"/>
      <point x="273.7" y="110.6" type="curve" smooth="yes"/>
      <point x="278.6" y="128.8"/>
      <point x="281.4" y="147.7"/>
      <point x="286.3" y="166.6" type="curve"/>
    </contour>
  </outline>
</glyph>
<glyph name="five" format="2">
  <advance width="501"/>
  <unicode hex="0035"/>
  <outline>
    <contour>
      <point x="149.1" y="315.7" type="curve"/>
      <point x="185.5" y="395.5"/>
      <point x="227.5" y="474.6"/>
      <point x="266" y="554.4" type="curve" smooth="yes"/>
      <point x="296.8" y="616.7" type="line" smooth="yes"/>
      <point x="299.6" y="621.6"/>
      <point x="303.8" y="635.6"/>
      <point x="308.7" y="638.4" type="curve" smooth="yes"/>
      <point x="310.8" y="639.8"/>
      <point x="313.6" y="640.5"/>
      <point x="316.4" y="640.5" type="curve" smooth="yes"/>
      <point x="319.9" y="640.5"/>
      <point x="323.4" y="639.8"/>
      <point x="326.2" y="639.8" type="curve" smooth="yes"/>
      <point x="371.7" y="639.8" type="line"/>
      <point x="487.2" y="639.8" type="line" smooth="yes"/>
      <point x="499.8" y="639.8"/>
      <point x="512.4" y="639.1"/>
      <point x="525.7" y="639.1" type="curve" smooth="yes"/>
      <point x="532" y="639.1"/>
      <point x="538.3" y="639.1"/>
      <point x="544.6" y="639.8" type="curve" smooth="yes"/>
      <point x="561.4" y="641.2"/>
      <point x="568.4" y="659.4"/>
      <point x="581" y="667.1" type="curve" smooth="yes"/>
      <point x="582.4" y="667.8"/>
      <point x="584.5" y="668.5"/>
      <point x="587.3" y="668.5" type="curve" smooth="yes"/>
      <point x="589.4" y="668.5"/>
      <point x="591.5" y="667.8"/>
      <point x="592.9" y="667.8" type="curve" smooth="yes"/>
      <point x="622.3" y="667.8" type="line"/>
      <point x="559.3" y="532" type="line"/>
      <point x="311.5" y="532" type="line"/>
      <point x="298.2" y="499.1"/>
      <point x="280" y="465.5"/>
      <point x="263.2" y="433.3" type="curve"/>
      <point x="285.6" y="444.5"/>
      <point x="312.2" y="447.3"/>
      <point x="334.6" y="447.3" type="curve" smooth="yes"/>
      <point x="346.5" y="447.3" type="line" smooth="yes"/>
      <point x="435.4" y="443.1"/>
      <point x="508.9" y="385.7"/>
      <point x="512.4" y="297.5" type="curve" smooth="yes"/>
      <point x="513.1" y="276.5"/>
      <point x="510.3" y="252.7"/>
      <point x="504" y="228.9" type="curve" smooth="yes"/>
      <point x="493.5" y="191.1"/>
      <point x="475.3" y="153.3"/>
      <point x="450.8" y="122.5" type="curve" smooth="yes"/>
      <point x="385" y="41.2998"/>
      <point x="272.3" y="-16.7998"/>
      <point x="179.9" y="-17.5" type="curve" smooth="yes"/>
      <point x="168.7" y="-17.5" type="line" smooth="yes"/>
      <point x="137.9" y="-17.5"/>
      <point x="107.8" y="-15.4004"/>
      <point x="81.2002" y="-4.90039" type="curve" smooth="yes"/>
      <point x="69.2998" y="0"/>
      <point x="59.5" y="7.7002"/>
      <point x="48.2998" y="14.7002" type="curve"/>
      <point x="77" y="58.0996" type="line"/>
      <point x="90.2998" y="54.5996"/>
      <point x="102.2" y="47.5996"/>
      <point x="115.5" y="43.4004" type="curve" smooth="yes"/>
      <point x="137.2" y="36.4004"/>
      <point x="161.7" y="31.5"/>
      <point x="187.6" y="31.5" type="curve" smooth="yes"/>
      <point x="205.1" y="31.5"/>
      <point x="223.3" y="34.2998"/>
      <point x="240.8" y="39.2002" type="curve" smooth="yes"/>
      <point x="287" y="53.2002"/>
      <point x="347.2" y="100.1"/>
      <point x="366.8" y="144.9" type="curve" smooth="yes"/>
      <point x="368.2" y="148.4"/>
      <point x="369.6" y="151.9"/>
      <point x="370.3" y="155.4" type="curve" smooth="yes"/>
      <point x="373.1" y="163.8"/>
      <point x="373.8" y="172.2"/>
      <point x="375.2" y="179.9" type="curve" smooth="yes"/>
      <point x="380.8" y="219.1"/>
      <point x="376.6" y="256.2"/>
      <point x="356.3" y="284.9" type="curve" smooth="yes"/>
      <point x="339.5" y="306.6"/>
      <point x="311.5" y="315"/>
      <point x="281.4" y="315" type="curve" smooth="yes"/>
      <point x="265.3" y="315"/>
      <point x="248.5" y="312.9"/>
      <point x="232.4" y="309.4" type="curve" smooth="yes"/>
      <point x="221.9" y="306.6"/>
      <point x="211.4" y="303.8"/>
      <point x="200.9" y="300.3" type="curve" smooth="yes"/>
      <point x="196" y="298.2"/>
      <point x="189" y="294.7"/>
      <point x="184.1" y="294.7" type="curve"/>
      <point x="184.1" y="294.7" type="line"/>
      <point x="179.9" y="294.7"/>
      <point x="175.7" y="298.2"/>
      <point x="172.9" y="300.3" type="curve" smooth="yes"/>
      <point x="164.5" y="305.2"/>
      <point x="156.8" y="310.8"/>
    </contour>
  </outline>
</glyph>
<glyph name="six" format="2">
  <advance width="501"/>
  <unicode hex="0036"/>
  <outline>
    <contour>
      <point x="211.4" y="194.6" type="curve" smooth="yes"/>
      <point x="235.9" y="287"/>
      <point x="294" y="362.6"/>
      <point x="340.2" y="362.6" type="curve" smooth="yes"/>
      <point x="386.4" y="362.6"/>
      <point x="403.9" y="287"/>
      <point x="379.4" y="194.6" type="curve" smooth="yes"/>
      <point x="354.2" y="101.5"/>
      <point x="296.8" y="26.5996"/>
      <point x="250.6" y="26.5996" type="curve" smooth="yes"/>
      <point x="203.7" y="26.5996"/>
      <point x="186.2" y="101.5"/>
    </contour>
    <contour>
      <point x="312.2" y="411.6" type="curve"/>
      <point x="312.9" y="412.3"/>
      <point x="312.9" y="413"/>
      <point x="312.9" y="413.7" type="curve" smooth="yes"/>
      <point x="317.8" y="430.5"/>
      <point x="333.9" y="450.8"/>
      <point x="345.1" y="465.5" type="curve" smooth="yes"/>
      <point x="375.2" y="504.7"/>
      <point x="413" y="539"/>
      <point x="455" y="563.5" type="curve" smooth="yes"/>
      <point x="471.1" y="572.6"/>
      <point x="488.6" y="578.9"/>
      <point x="504.7" y="587.3" type="curve" smooth="yes"/>
      <point x="529.9" y="600.6"/>
      <point x="571.2" y="595.7"/>
      <point x="588.7" y="625.1" type="curve" smooth="yes"/>
      <point x="592.2" y="631.4"/>
      <point x="595" y="638.4"/>
      <point x="596.4" y="644.7" type="curve"/>
      <point x="583.8" y="646.8"/>
      <point x="571.2" y="648.2"/>
      <point x="557.9" y="648.2" type="curve" smooth="yes"/>
      <point x="491.4" y="648.2"/>
      <point x="416.5" y="619.5"/>
      <point x="354.9" y="579.6" type="curve" smooth="yes"/>
      <point x="304.5" y="547.4"/>
      <point x="252.7" y="506.1"/>
      <point x="213.5" y="459.9" type="curve" smooth="yes"/>
      <point x="162.4" y="399.7"/>
      <point x="127.4" y="329"/>
      <point x="109.2" y="259.7" type="curve" smooth="yes"/>
      <point x="105" y="244.3"/>
      <point x="101.5" y="228.2"/>
      <point x="98.7002" y="212.8" type="curve" smooth="yes"/>
      <point x="91.7002" y="169.4"/>
      <point x="93.0996" y="122.5"/>
      <point x="107.1" y="85.4004" type="curve" smooth="yes"/>
      <point x="130.2" y="25.2002"/>
      <point x="184.1" y="-17.5"/>
      <point x="254.8" y="-17.5" type="curve" smooth="yes"/>
      <point x="266.7" y="-17.5"/>
      <point x="278.6" y="-16.7998"/>
      <point x="290.5" y="-14" type="curve" smooth="yes"/>
      <point x="329" y="-7"/>
      <point x="366.1" y="14"/>
      <point x="398.3" y="39.9004" type="curve" smooth="yes"/>
      <point x="437.5" y="70"/>
      <point x="469.7" y="109.2"/>
      <point x="491.4" y="150.5" type="curve" smooth="yes"/>
      <point x="502.6" y="170.8"/>
      <point x="511" y="191.8"/>
      <point x="516.6" y="213.5" type="curve" smooth="yes"/>
      <point x="539" y="298.2"/>
      <point x="522.2" y="386.4"/>
      <point x="448" y="415.8" type="curve" smooth="yes"/>
      <point x="431.2" y="422.8"/>
      <point x="411.6" y="426.3"/>
      <point x="391.3" y="427" type="curve" smooth="yes"/>
      <point x="389.9" y="427" type="line" smooth="yes"/>
      <point x="364" y="427"/>
      <point x="338.1" y="420.7"/>
    </contour>
  </outline>
</glyph>
<glyph name="seven" format="2">
  <advance width="501"/>
  <unicode hex="0037"/>
  <outline>
    <contour>
      <point x="180.6" y="452.9" type="line"/>
      <point x="186.9" y="470.4"/>
      <point x="198.1" y="488.6"/>
      <point x="206.5" y="505.4" type="curve" smooth="yes"/>
      <point x="254.8" y="602" type="line"/>
      <point x="272.3" y="637" type="line" smooth="yes"/>
      <point x="275.1" y="641.2"/>
      <point x="276.5" y="647.5"/>
      <point x="281.4" y="650.3" type="curve" smooth="yes"/>
      <point x="287" y="653.1"/>
      <point x="298.2" y="655.2"/>
      <point x="307.3" y="655.2" type="curve" smooth="yes"/>
      <point x="312.2" y="655.2"/>
      <point x="316.4" y="655.2"/>
      <point x="318.5" y="653.8" type="curve" smooth="yes"/>
      <point x="323.4" y="651"/>
      <point x="324.8" y="644"/>
      <point x="330.4" y="641.2" type="curve" smooth="yes"/>
      <point x="338.8" y="636.3"/>
      <point x="350.7" y="634.9"/>
      <point x="361.9" y="634.9" type="curve" smooth="yes"/>
      <point x="391.3" y="634.2"/>
      <point x="420.7" y="634.2"/>
      <point x="450.8" y="634.2" type="curve" smooth="yes"/>
      <point x="509.6" y="634.2"/>
      <point x="569.8" y="634.9"/>
      <point x="629.3" y="634.9" type="curve"/>
      <point x="628.6" y="626.5"/>
      <point x="627.2" y="618.1"/>
      <point x="624.4" y="609.7" type="curve" smooth="yes"/>
      <point x="609.7" y="554.4"/>
      <point x="563.5" y="508.9"/>
      <point x="529.9" y="457.8" type="curve" smooth="yes"/>
      <point x="465.5" y="359.8"/>
      <point x="408.8" y="256.2"/>
      <point x="361.2" y="152.6" type="curve" smooth="yes"/>
      <point x="343" y="112"/>
      <point x="326.2" y="70.7002"/>
      <point x="311.5" y="29.4004" type="curve" smooth="yes"/>
      <point x="307.3" y="18.9004"/>
      <point x="303.8" y="8.40039"/>
      <point x="301" y="-2.09961" type="curve"/>
      <point x="301" y="-2.09961" type="line"/>
      <point x="300.3" y="-4.2002"/>
      <point x="300.3" y="-6.2998"/>
      <point x="299.6" y="-9.09961" type="curve" smooth="yes"/>
      <point x="298.9" y="-11.2002"/>
      <point x="297.5" y="-13.2998"/>
      <point x="296.1" y="-14.7002" type="curve" smooth="yes"/>
      <point x="294" y="-17.5"/>
      <point x="289.8" y="-16.7998"/>
      <point x="287" y="-16.7998" type="curve" smooth="yes"/>
      <point x="261.8" y="-16.7998" type="line"/>
      <point x="158.2" y="-16.7998" type="line"/>
      <point x="174.3" y="24.5"/>
      <point x="196.7" y="65.7998"/>
      <point x="218.4" y="105.7" type="curve" smooth="yes"/>
      <point x="270.2" y="198.8"/>
      <point x="331.8" y="291.2"/>
      <point x="400.4" y="376.6" type="curve" smooth="yes"/>
      <point x="476" y="467.6" type="line" smooth="yes"/>
      <point x="492.1" y="485.8"/>
      <point x="510.3" y="503.3"/>
      <point x="523.6" y="522.2" type="curve"/>
      <point x="373.1" y="522.2" type="line"/>
      <point x="328.3" y="522.2" type="line"/>
      <point x="316.4" y="522.2" type="line" smooth="yes"/>
      <point x="312.9" y="522.2"/>
      <point x="309.4" y="522.2"/>
      <point x="305.9" y="520.8" type="curve" smooth="yes"/>
      <point x="274.4" y="511"/>
      <point x="246.4" y="481.6"/>
      <point x="232.4" y="452.9" type="curve"/>
    </contour>
  </outline>
</glyph>
<glyph name="eight" format="2">
  <advance width="501"/>
  <unicode hex="0038"/>
  <outline>
    <contour>
      <point x="261.8" y="271.6" type="line"/>
      <point x="238" y="248.5" type="line"/>
      <point x="215.6" y="203" type="line"/>
      <point x="200.2" y="159.6" type="line"/>
      <point x="191.1" y="112" type="line"/>
      <point x="189" y="84" type="line"/>
      <point x="209.3" y="50.4004" type="line"/>
      <point x="245.7" y="28" type="line"/>
      <point x="289.8" y="24.5" type="line"/>
      <point x="333.9" y="43.4004" type="line"/>
      <point x="372.4" y="70" type="line"/>
      <point x="391.3" y="101.5" type="line"/>
      <point x="394.8" y="148.4" type="line"/>
      <point x="390.6" y="178.5" type="line"/>
      <point x="364" y="208.6" type="line"/>
      <point x="318.5" y="241.5" type="line"/>
    </contour>
    <contour>
      <point x="347.9" y="579.6" type="line"/>
      <point x="315" y="547.4" type="line"/>
      <point x="301" y="521.5" type="line"/>
      <point x="296.8" y="479.5" type="line"/>
      <point x="308.7" y="460.6" type="line"/>
      <point x="331.1" y="432.6" type="line"/>
      <point x="363.3" y="414.4" type="line"/>
      <point x="399" y="385" type="line"/>
      <point x="417.9" y="378" type="line"/>
      <point x="452.9" y="416.5" type="line"/>
      <point x="476.7" y="446.6" type="line"/>
      <point x="491.4" y="500.5" type="line"/>
      <point x="497.7" y="537.6" type="line"/>
      <point x="493.5" y="567" type="line"/>
      <point x="477.4" y="581" type="line"/>
      <point x="450.1" y="589.4" type="line"/>
      <point x="422.1" y="595" type="line"/>
      <point x="395.5" y="595" type="line"/>
    </contour>
    <contour>
      <point x="227.5" y="300.3" type="curve"/>
      <point x="194.6" y="326.9"/>
      <point x="179.2" y="361.2"/>
      <point x="180.6" y="407.4" type="curve" smooth="yes"/>
      <point x="180.6" y="424.2"/>
      <point x="183.4" y="443.1"/>
      <point x="188.3" y="461.3" type="curve" smooth="yes"/>
      <point x="193.2" y="480.2"/>
      <point x="200.9" y="498.4"/>
      <point x="210" y="514.5" type="curve" smooth="yes"/>
      <point x="260.4" y="599.9"/>
      <point x="359.1" y="650.3"/>
      <point x="444.5" y="650.3" type="curve" smooth="yes"/>
      <point x="476.7" y="650.3"/>
      <point x="507.5" y="643.3"/>
      <point x="532.7" y="627.9" type="curve" smooth="yes"/>
      <point x="557.2" y="613.2"/>
      <point x="578.2" y="588.7"/>
      <point x="586.6" y="560.7" type="curve" smooth="yes"/>
      <point x="592.9" y="539"/>
      <point x="592.2" y="513.1"/>
      <point x="585.2" y="487.2" type="curve" smooth="yes"/>
      <point x="578.2" y="458.5"/>
      <point x="562.8" y="429.8"/>
      <point x="539.7" y="408.1" type="curve" smooth="yes"/>
      <point x="515.9" y="385.7"/>
      <point x="490" y="368.2"/>
      <point x="462" y="352.1" type="curve"/>
      <point x="478.1" y="345.1"/>
      <point x="490.7" y="326.9"/>
      <point x="499.8" y="312.9" type="curve" smooth="yes"/>
      <point x="525" y="275.8"/>
      <point x="529.9" y="225.4"/>
      <point x="515.9" y="174.3" type="curve" smooth="yes"/>
      <point x="505.4" y="133.7"/>
      <point x="483" y="93.7998"/>
      <point x="450.8" y="60.2002" type="curve" smooth="yes"/>
      <point x="392.7" y="-0.700195"/>
      <point x="315" y="-27.2998"/>
      <point x="244.3" y="-27.2998" type="curve" smooth="yes"/>
      <point x="227.5" y="-27.2998"/>
      <point x="211.4" y="-25.9004"/>
      <point x="196" y="-23.0996" type="curve" smooth="yes"/>
      <point x="141.4" y="-13.2998"/>
      <point x="98" y="19.5996"/>
      <point x="85.4004" y="72.0996" type="curve" smooth="yes"/>
      <point x="81.2002" y="91.7002"/>
      <point x="82.5996" y="114.1"/>
      <point x="88.2002" y="136.5" type="curve" smooth="yes"/>
      <point x="102.9" y="191.8"/>
      <point x="146.3" y="249.2"/>
      <point x="196.7" y="281.4" type="curve" smooth="yes"/>
      <point x="206.5" y="287.7"/>
      <point x="217" y="296.1"/>
    </contour>
  </outline>
</glyph>
<glyph name="semicolon" format="2">
  <advance width="426"/>
  <unicode hex="003B"/>
  <outline>
    <contour>
      <point x="342.3" y="631.4" type="curve" smooth="yes"/>
      <point x="345.8" y="632.1"/>
      <point x="349.3" y="632.1"/>
      <point x="353.5" y="632.1" type="curve" smooth="yes"/>
      <point x="360.5" y="632.1"/>
      <point x="367.5" y="631.4"/>
      <point x="373.8" y="629.3" type="curve" smooth="yes"/>
      <point x="413" y="619.5"/>
      <point x="425.6" y="581.7"/>
      <point x="415.1" y="544.6" type="curve" smooth="yes"/>
      <point x="408.1" y="515.9"/>
      <point x="387.1" y="487.9"/>
      <point x="354.9" y="471.1" type="curve" smooth="yes"/>
      <point x="342.3" y="464.8"/>
      <point x="329.7" y="460.6"/>
      <point x="317.8" y="459.2" type="curve" smooth="yes"/>
      <point x="313.6" y="458.5"/>
      <point x="310.1" y="458.5"/>
      <point x="306.6" y="458.5" type="curve" smooth="yes"/>
      <point x="257.6" y="458.5"/>
      <point x="232.4" y="502.6"/>
      <point x="244.3" y="548.1" type="curve" smooth="yes"/>
      <point x="249.2" y="564.9"/>
      <point x="258.3" y="581.7"/>
      <point x="273.7" y="597.1" type="curve" smooth="yes"/>
      <point x="282.1" y="605.5"/>
      <point x="292.6" y="613.2"/>
      <point x="303.1" y="618.8" type="curve" smooth="yes"/>
      <point x="315.7" y="625.8"/>
      <point x="329" y="630"/>
    </contour>
    <contour>
      <point x="-22.4004" y="-166.6" type="line"/>
      <point x="18.9004" y="-96.5996"/>
      <point x="56" y="-24.5"/>
      <point x="94.5" y="46.9004" type="curve" smooth="yes"/>
      <point x="130.2" y="112" type="line" smooth="yes"/>
      <point x="136.5" y="123.2"/>
      <point x="141.4" y="135.1"/>
      <point x="151.2" y="144.9" type="curve" smooth="yes"/>
      <point x="167.3" y="161.7"/>
      <point x="183.4" y="163.8"/>
      <point x="200.9" y="163.8" type="curve" smooth="yes"/>
      <point x="206.5" y="163.8"/>
      <point x="212.1" y="163.1"/>
      <point x="217.7" y="163.1" type="curve" smooth="yes"/>
      <point x="224.7" y="163.1"/>
      <point x="231" y="163.8"/>
      <point x="238" y="163.8" type="curve" smooth="yes"/>
      <point x="243.6" y="163.8"/>
      <point x="248.5" y="163.1"/>
      <point x="253.4" y="163.1" type="curve"/>
      <point x="261.1" y="161.7"/>
      <point x="280" y="163.1"/>
      <point x="282.1" y="155.4" type="curve" smooth="yes"/>
      <point x="283.5" y="151.9"/>
      <point x="282.1" y="146.3"/>
      <point x="281.4" y="142.1" type="curve" smooth="yes"/>
      <point x="280.7" y="139.3"/>
      <point x="280" y="137.2"/>
      <point x="279.3" y="135.1" type="curve" smooth="yes"/>
      <point x="272.3" y="109.2"/>
      <point x="249.2" y="86.0996"/>
      <point x="231.7" y="63" type="curve" smooth="yes"/>
      <point x="214.9" y="41.2998"/>
      <point x="193.2" y="20.2998"/>
      <point x="174.3" y="0" type="curve" smooth="yes"/>
      <point x="78.4004" y="-102.9" type="line"/>
      <point x="37.0996" y="-147.7" type="line" smooth="yes"/>
      <point x="32.2002" y="-152.6"/>
      <point x="25.9004" y="-162.4"/>
      <point x="19.5996" y="-165.2" type="curve" smooth="yes"/>
      <point x="17.5" y="-165.9"/>
      <point x="15.4004" y="-166.6"/>
      <point x="13.2998" y="-166.6" type="curve" smooth="yes"/>
      <point x="7" y="-166.6" type="line"/>
    </contour>
  </outline>
</glyph>
<glyph name="less" format="2">
  <advance width="782"/>
  <unicode hex="003C"/>
  <outline>
    <contour>
      <point x="857.5" y="621.6" type="curve"/>
      <point x="853.3" y="599.9" type="line"/>
      <point x="840.7" y="554.4" type="line"/>
      <point x="833.7" y="532.7" type="line"/>
      <point x="817.6" y="525.7" type="line"/>
      <point x="784.7" y="513.1" type="line"/>
      <point x="676.2" y="470.4" type="line"/>
      <point x="415.1" y="367.5" type="line"/>
      <point x="331.8" y="333.9" type="line"/>
      <point x="286.3" y="317.1" type="line"/>
      <point x="292.6" y="308"/>
      <point x="308.7" y="303.8"/>
      <point x="318.5" y="298.2" type="curve" smooth="yes"/>
      <point x="340.2" y="287.7"/>
      <point x="361.2" y="275.8"/>
      <point x="382.9" y="263.9" type="curve" smooth="yes"/>
      <point x="607.6" y="144.2" type="line"/>
      <point x="683.9" y="103.6" type="line"/>
      <point x="706.3" y="91.7002" type="line" smooth="yes"/>
      <point x="708.4" y="90.2998"/>
      <point x="713.3" y="88.9004"/>
      <point x="714" y="86.0996" type="curve"/>
      <point x="715.4" y="84"/>
      <point x="714.7" y="80.5"/>
      <point x="713.3" y="76.2998" type="curve" smooth="yes"/>
      <point x="711.9" y="70.7002"/>
      <point x="709.8" y="65.0996"/>
      <point x="708.4" y="61.5996" type="curve" smooth="yes"/>
      <point x="691.6" y="-2.7998" type="line"/>
      <point x="639.8" y="21"/>
      <point x="592.2" y="51.0996"/>
      <point x="541.8" y="77.7002" type="curve" smooth="yes"/>
      <point x="268.1" y="224.7" type="line"/>
      <point x="192.5" y="265.3" type="line" smooth="yes"/>
      <point x="185.5" y="268.8"/>
      <point x="169.4" y="273"/>
      <point x="166.6" y="280.7" type="curve" smooth="yes"/>
      <point x="165.9" y="282.1"/>
      <point x="166.6" y="284.2"/>
      <point x="166.6" y="286.3" type="curve"/>
      <point x="167.3" y="288.4"/>
      <point x="168.7" y="291.2"/>
      <point x="168.7" y="292.6" type="curve"/>
      <point x="177.1" y="323.4" type="line" smooth="yes"/>
      <point x="178.5" y="328.3"/>
      <point x="179.2" y="336"/>
      <point x="181.3" y="342.3" type="curve" smooth="yes"/>
      <point x="182" y="346.5"/>
      <point x="183.4" y="350"/>
      <point x="185.5" y="352.8" type="curve" smooth="yes"/>
      <point x="188.3" y="356.3"/>
      <point x="194.6" y="357.7"/>
      <point x="198.1" y="359.1" type="curve" smooth="yes"/>
      <point x="231" y="372.4" type="line"/>
      <point x="362.6" y="424.2" type="line"/>
      <point x="688.8" y="553.7" type="line"/>
      <point x="798" y="597.1" type="line" smooth="yes"/>
      <point x="817.6" y="604.8"/>
      <point x="838.6" y="611.8"/>
    </contour>
  </outline>
</glyph>
<glyph name="at" format="2">
  <advance width="1055"/>
  <unicode hex="0040"/>
  <outline>
    <contour>
      <point x="506.8" y="282.8" type="curve" smooth="yes"/>
      <point x="507.5" y="284.9"/>
      <point x="508.2" y="287"/>
      <point x="508.2" y="289.1" type="curve"/>
      <point x="533.4" y="382.2"/>
      <point x="678.3" y="486.5"/>
      <point x="700" y="490" type="curve" smooth="yes"/>
      <point x="714.7" y="494.2"/>
      <point x="728" y="496.3"/>
      <point x="737.8" y="496.3" type="curve" smooth="yes"/>
      <point x="779.8" y="496.3"/>
      <point x="782.6" y="463.4"/>
      <point x="772.1" y="423.5" type="curve" smooth="yes"/>
      <point x="761.6" y="382.9"/>
      <point x="737.1" y="335.3"/>
      <point x="723.1" y="305.2" type="curve"/>
      <point x="696.5" y="206.5"/>
      <point x="579.6" y="98"/>
      <point x="530.6" y="98" type="curve" smooth="yes"/>
      <point x="525.7" y="98" type="line" smooth="yes"/>
      <point x="473.9" y="98"/>
      <point x="461.3" y="144.9"/>
      <point x="478.8" y="210.7" type="curve" smooth="yes"/>
      <point x="484.4" y="233.1"/>
      <point x="494.2" y="257.6"/>
    </contour>
    <contour>
      <point x="823.9" y="-92.4004" type="line"/>
      <point x="779.8" y="-109.2"/>
      <point x="737.1" y="-127.4"/>
      <point x="692.3" y="-140" type="curve" smooth="yes"/>
      <point x="617.4" y="-161.7"/>
      <point x="545.3" y="-170.1"/>
      <point x="472.5" y="-170.1" type="curve" smooth="yes"/>
      <point x="384.3" y="-170.1"/>
      <point x="304.5" y="-140.7"/>
      <point x="242.2" y="-93.7998" type="curve" smooth="yes"/>
      <point x="191.1" y="-56.7002"/>
      <point x="154.7" y="-0.700195"/>
      <point x="133.7" y="60.2002" type="curve" smooth="yes"/>
      <point x="110.6" y="129.5"/>
      <point x="110.6" y="211.4"/>
      <point x="132.3" y="293.3" type="curve" smooth="yes"/>
      <point x="149.1" y="355.6"/>
      <point x="178.5" y="417.9"/>
      <point x="219.8" y="474.6" type="curve" smooth="yes"/>
      <point x="259.7" y="529.2"/>
      <point x="310.1" y="575.4"/>
      <point x="364" y="617.4" type="curve" smooth="yes"/>
      <point x="428.4" y="668.5"/>
      <point x="499.8" y="714.7"/>
      <point x="574" y="745.5" type="curve" smooth="yes"/>
      <point x="650.3" y="777"/>
      <point x="726.6" y="788.9"/>
      <point x="801.5" y="792.4" type="curve" smooth="yes"/>
      <point x="809.9" y="792.4"/>
      <point x="819" y="793.1"/>
      <point x="827.4" y="793.1" type="curve" smooth="yes"/>
      <point x="902.3" y="793.1"/>
      <point x="975.1" y="777.7"/>
      <point x="1027.6" y="735.7" type="curve" smooth="yes"/>
      <point x="1066.8" y="703.5"/>
      <point x="1090.6" y="657.3"/>
      <point x="1106" y="607.6" type="curve" smooth="yes"/>
      <point x="1120" y="560"/>
      <point x="1126.3" y="508.2"/>
      <point x="1121.4" y="454.3" type="curve" smooth="yes"/>
      <point x="1119.3" y="423.5"/>
      <point x="1112.3" y="392.7"/>
      <point x="1103.9" y="361.9" type="curve" smooth="yes"/>
      <point x="1099.7" y="345.8" type="line" smooth="yes"/>
      <point x="1096.9" y="335.3"/>
      <point x="1094.1" y="324.8"/>
      <point x="1089.2" y="314.3" type="curve" smooth="yes"/>
      <point x="1070.3" y="272.3"/>
      <point x="1037.4" y="233.1"/>
      <point x="1005.9" y="197.4" type="curve" smooth="yes"/>
      <point x="982.1" y="169.4"/>
      <point x="956.9" y="140.7"/>
      <point x="928.2" y="117.6" type="curve" smooth="yes"/>
      <point x="877.1" y="76.2998"/>
      <point x="822.5" y="54.5996"/>
      <point x="767.9" y="54.5996" type="curve" smooth="yes"/>
      <point x="758.1" y="54.5996"/>
      <point x="747.6" y="55.2998"/>
      <point x="737.8" y="57.4004" type="curve" smooth="yes"/>
      <point x="720.3" y="59.5"/>
      <point x="701.4" y="63"/>
      <point x="688.1" y="72.0996" type="curve" smooth="yes"/>
      <point x="667.8" y="86.7998"/>
      <point x="658" y="109.9"/>
      <point x="648.9" y="133" type="curve"/>
      <point x="633.5" y="111.3"/>
      <point x="601.3" y="93.0996"/>
      <point x="578.2" y="81.9004" type="curve" smooth="yes"/>
      <point x="543.2" y="64.4004"/>
      <point x="504" y="54.5996"/>
      <point x="468.3" y="54.5996" type="curve" smooth="yes"/>
      <point x="436.1" y="54.5996"/>
      <point x="406" y="63"/>
      <point x="384.3" y="81.9004" type="curve" smooth="yes"/>
      <point x="370.3" y="94.5"/>
      <point x="358.4" y="111.3"/>
      <point x="356.3" y="132.3" type="curve" smooth="yes"/>
      <point x="354.9" y="158.2"/>
      <point x="362.6" y="189.7"/>
      <point x="370.3" y="217" type="curve" smooth="yes"/>
      <point x="371" y="220.5" type="line" smooth="yes"/>
      <point x="382.9" y="263.2"/>
      <point x="399" y="305.9"/>
      <point x="424.9" y="345.8" type="curve" smooth="yes"/>
      <point x="441.7" y="372.4"/>
      <point x="462.7" y="396.2"/>
      <point x="483.7" y="420" type="curve" smooth="yes"/>
      <point x="510.3" y="450.1"/>
      <point x="540.4" y="479.5"/>
      <point x="574" y="501.9" type="curve" smooth="yes"/>
      <point x="616" y="529.9"/>
      <point x="668.5" y="549.5"/>
      <point x="714" y="549.5" type="curve" smooth="yes"/>
      <point x="749.7" y="549.5"/>
      <point x="781.9" y="536.9"/>
      <point x="800.1" y="506.8" type="curve" smooth="yes"/>
      <point x="805" y="498.4"/>
      <point x="810.6" y="489.3"/>
      <point x="812.7" y="479.5" type="curve"/>
      <point x="824.6" y="494.2"/>
      <point x="830.2" y="515.9"/>
      <point x="837.9" y="532.7" type="curve"/>
      <point x="937.3" y="532.7" type="line"/>
      <point x="894.6" y="440.3"/>
      <point x="845.6" y="349.3"/>
      <point x="799.4" y="257.6" type="curve" smooth="yes"/>
      <point x="760.9" y="180.6" type="line" smooth="yes"/>
      <point x="756" y="172.2"/>
      <point x="746.9" y="158.2"/>
      <point x="744.1" y="148.4" type="curve" smooth="yes"/>
      <point x="743.4" y="147"/>
      <point x="743.4" y="145.6"/>
      <point x="743.4" y="144.9" type="curve" smooth="yes"/>
      <point x="742.7" y="139.3"/>
      <point x="747.6" y="133.7"/>
      <point x="749.7" y="129.5" type="curve" smooth="yes"/>
      <point x="759.5" y="113.4"/>
      <point x="776.3" y="105"/>
      <point x="797.3" y="105" type="curve" smooth="yes"/>
      <point x="799.4" y="105" type="line" smooth="yes"/>
      <point x="843.5" y="105.7"/>
      <point x="889.7" y="144.2"/>
      <point x="922.6" y="177.1" type="curve" smooth="yes"/>
      <point x="983.5" y="236.6"/>
      <point x="1030.4" y="311.5"/>
      <point x="1050.7" y="385.7" type="curve" smooth="yes"/>
      <point x="1057" y="411.6"/>
      <point x="1061.2" y="436.8"/>
      <point x="1060.5" y="462" type="curve" smooth="yes"/>
      <point x="1060.5" y="497.7"/>
      <point x="1054.9" y="532"/>
      <point x="1043.7" y="564.2" type="curve" smooth="yes"/>
      <point x="1013.6" y="645.4"/>
      <point x="939.4" y="704.9"/>
      <point x="848.4" y="721" type="curve" smooth="yes"/>
      <point x="830.9" y="723.8"/>
      <point x="813.4" y="725.2"/>
      <point x="795.2" y="725.2" type="curve" smooth="yes"/>
      <point x="775.6" y="725.2"/>
      <point x="755.3" y="723.8"/>
      <point x="735" y="722.4" type="curve" smooth="yes"/>
      <point x="709.8" y="721"/>
      <point x="684.6" y="719.6"/>
      <point x="658.7" y="714" type="curve" smooth="yes"/>
      <point x="599.9" y="700.7"/>
      <point x="541.1" y="665"/>
      <point x="489.3" y="627.9" type="curve" smooth="yes"/>
      <point x="442.4" y="595.7"/>
      <point x="398.3" y="557.9"/>
      <point x="361.2" y="515.2" type="curve" smooth="yes"/>
      <point x="319.2" y="466.2"/>
      <point x="291.2" y="412.3"/>
      <point x="266" y="357" type="curve" smooth="yes"/>
      <point x="254.1" y="329"/>
      <point x="240.8" y="301"/>
      <point x="231.7" y="273" type="curve" smooth="yes"/>
      <point x="229.6" y="267.4"/>
      <point x="228.2" y="261.8"/>
      <point x="226.8" y="255.5" type="curve" smooth="yes"/>
      <point x="206.5" y="180.6"/>
      <point x="207.9" y="105.7"/>
      <point x="237.3" y="45.5" type="curve" smooth="yes"/>
      <point x="291.2" y="-62.2998"/>
      <point x="410.2" y="-116.2"/>
      <point x="543.9" y="-116.2" type="curve" smooth="yes"/>
      <point x="579.6" y="-116.2"/>
      <point x="616.7" y="-112"/>
      <point x="653.8" y="-104.3" type="curve" smooth="yes"/>
      <point x="693.7" y="-96.5996"/>
      <point x="733.6" y="-83.2998"/>
      <point x="773.5" y="-66.5" type="curve" smooth="yes"/>
      <point x="788.9" y="-60.2002"/>
      <point x="803.6" y="-51.0996"/>
      <point x="819" y="-44.7998" type="curve"/>
    </contour>
  </outline>
</glyph>
<glyph name="bracketleft" format="2">
  <advance width="387"/>
  <unicode hex="005B"/>
  <outline>
    <contour>
      <point x="268.8" y="684.6" type="line"/>
      <point x="529.2" y="684.6" type="line"/>
      <point x="515.9" y="634.9" type="line"/>
      <point x="354.2" y="634.9" type="line"/>
      <point x="140.7" y="-159.6" type="line"/>
      <point x="303.1" y="-159.6" type="line"/>
      <point x="290.5" y="-207.9" type="line"/>
      <point x="30.0996" y="-207.9" type="line"/>
    </contour>
  </outline>
</glyph>
<glyph name="Abreve" format="2">
  <advance width="0"/>
  <unicode hex="0102"/>
  <outline>
    <contour>
      <point x="0.700195" y="2.09961" type="line"/>
      <point x="2.09961" y="0.700195" type="line"/>
    </contour>
  </outline>
</glyph>
<glyph name="Aogonek" format="2">
  <advance width="538"/>
  <unicode hex="0104"/>
  <outline>
    <contour>
      <point x="18.2002" y="297.5" type="curve"/>
      <point x="21.7002" y="311.5"/>
      <point x="30.7998" y="326.2"/>
      <point x="36.4004" y="339.5" type="curve" smooth="yes"/>
      <point x="74.9004" y="422.8" type="line"/>
      <point x="183.4" y="662.9" type="line"/>
      <point x="221.9" y="747.6" type="line" smooth="yes"/>
      <point x="224.7" y="753.9"/>
      <point x="230.3" y="774.2"/>
      <point x="237.3" y="775.6" type="curve" smooth="yes"/>
      <point x="242.9" y="777"/>
      <point x="249.2" y="777"/>
      <point x="255.5" y="777" type="curve" smooth="yes"/>
      <point x="267.4" y="777"/>
      <point x="279.3" y="775.6"/>
      <point x="290.5" y="775.6" type="curve" smooth="yes"/>
      <point x="293.3" y="775.6"/>
      <point x="296.8" y="776.3"/>
      <point x="300.3" y="776.3" type="curve" smooth="yes"/>
      <point x="303.8" y="776.3"/>
      <point x="306.6" y="775.6"/>
      <point x="308" y="774.2" type="curve" smooth="yes"/>
      <point x="316.4" y="765.8"/>
      <point x="321.3" y="746.9"/>
      <point x="326.2" y="735.7" type="curve" smooth="yes"/>
      <point x="368.9" y="641.9" type="line"/>
      <point x="472.5" y="412.3" type="line"/>
      <point x="506.1" y="339.5" type="line" smooth="yes"/>
      <point x="511.7" y="326.2"/>
      <point x="520.8" y="311.5"/>
      <point x="524.3" y="297.5" type="curve"/>
      <point x="504.7" y="298.2"/>
      <point x="485.1" y="298.2"/>
      <point x="465.5" y="298.2" type="curve" smooth="yes"/>
      <point x="462.7" y="298.2"/>
      <point x="457.1" y="297.5"/>
      <point x="452.2" y="297.5" type="curve" smooth="yes"/>
      <point x="448.7" y="297.5"/>
      <point x="445.9" y="298.2"/>
      <point x="443.8" y="299.6" type="curve" smooth="yes"/>
      <point x="437.5" y="303.8"/>
      <point x="433.3" y="320.6"/>
      <point x="430.5" y="327.6" type="curve" smooth="yes"/>
      <point x="398.3" y="399.7" type="line"/>
      <point x="312.2" y="592.9" type="line"/>
      <point x="284.2" y="655.2" type="line" smooth="yes"/>
      <point x="280" y="665"/>
      <point x="274.4" y="674.1"/>
      <point x="272.3" y="684.6" type="curve"/>
      <point x="270.2" y="684.6" type="line"/>
      <point x="268.1" y="674.1"/>
      <point x="262.5" y="665"/>
      <point x="258.3" y="655.2" type="curve" smooth="yes"/>
      <point x="230.3" y="592.9" type="line"/>
      <point x="144.2" y="399.7" type="line"/>
      <point x="112" y="327.6" type="line" smooth="yes"/>
      <point x="109.2" y="320.6"/>
      <point x="105" y="303.8"/>
      <point x="98.7002" y="299.6" type="curve" smooth="yes"/>
      <point x="96.5996" y="298.2"/>
      <point x="93.7998" y="297.5"/>
      <point x="90.2998" y="297.5" type="curve" smooth="yes"/>
      <point x="85.4004" y="297.5"/>
      <point x="79.7998" y="298.2"/>
      <point x="77" y="298.2" type="curve" smooth="yes"/>
      <point x="57.4004" y="298.2"/>
      <point x="37.7998" y="298.2"/>
    </contour>
  </outline>
</glyph>
<glyph name="aogonek" format="2">
  <advance width="541"/>
  <unicode hex="0105"/>
  <outline>
    <contour>
      <point x="277.9" y="634.9" type="curve"/>
      <point x="294" y="694.4"/>
      <point x="331.8" y="758.1"/>
      <point x="372.4" y="810.6" type="curve" smooth="yes"/>
      <point x="385.7" y="828.1"/>
      <point x="401.8" y="851.9"/>
      <point x="420" y="865.2" type="curve" smooth="yes"/>
      <point x="441" y="879.9"/>
      <point x="471.8" y="888.3"/>
      <point x="498.4" y="888.3" type="curve" smooth="yes"/>
      <point x="517.3" y="888.3"/>
      <point x="534.1" y="884.1"/>
      <point x="544.6" y="875" type="curve" smooth="yes"/>
      <point x="554.4" y="865.9"/>
      <point x="562.8" y="858.9"/>
      <point x="560.7" y="842.8" type="curve" smooth="yes"/>
      <point x="560.7" y="839.3"/>
      <point x="560" y="835.8"/>
      <point x="559.3" y="833" type="curve" smooth="yes"/>
      <point x="550.2" y="800.8"/>
      <point x="519.4" y="780.5"/>
      <point x="489.3" y="763" type="curve" smooth="yes"/>
      <point x="454.3" y="742.7"/>
      <point x="417.2" y="721.7"/>
      <point x="385" y="695.8" type="curve" smooth="yes"/>
      <point x="367.5" y="682.5"/>
      <point x="351.4" y="667.1"/>
      <point x="338.1" y="649.6" type="curve" smooth="yes"/>
      <point x="335.3" y="646.1"/>
      <point x="329.7" y="639.8"/>
      <point x="328.3" y="634.9" type="curve" smooth="yes"/>
      <point x="327.6" y="634.2"/>
      <point x="327.6" y="632.8"/>
      <point x="328.3" y="632.1" type="curve"/>
      <point x="329" y="630"/>
      <point x="331.1" y="629.3"/>
      <point x="333.9" y="629.3" type="curve" smooth="yes"/>
      <point x="337.4" y="629.3"/>
      <point x="340.9" y="630"/>
      <point x="343.7" y="630" type="curve" smooth="yes"/>
      <point x="360.5" y="630"/>
      <point x="377.3" y="630.7"/>
      <point x="394.1" y="632.8" type="curve" smooth="yes"/>
      <point x="413.7" y="634.9"/>
      <point x="434.7" y="636.3"/>
      <point x="455" y="636.3" type="curve" smooth="yes"/>
      <point x="494.2" y="636.3"/>
      <point x="532" y="630.7"/>
      <point x="560" y="613.9" type="curve" smooth="yes"/>
      <point x="606.9" y="585.9"/>
      <point x="615.3" y="520.8"/>
      <point x="612.5" y="463.4" type="curve" smooth="yes"/>
      <point x="611.1" y="428.4"/>
      <point x="604.8" y="391.3"/>
      <point x="595" y="353.5" type="curve" smooth="yes"/>
      <point x="568.4" y="254.1"/>
      <point x="513.1" y="151.9"/>
      <point x="431.9" y="77" type="curve" smooth="yes"/>
      <point x="406" y="52.5"/>
      <point x="372.4" y="26.5996"/>
      <point x="338.8" y="22.4004" type="curve" smooth="yes"/>
      <point x="331.1" y="22.4004" type="line" smooth="yes"/>
      <point x="317.1" y="22.4004"/>
      <point x="300.3" y="26.5996"/>
      <point x="293.3" y="36.4004" type="curve" smooth="yes"/>
      <point x="289.1" y="42.7002"/>
      <point x="289.8" y="57.4004"/>
      <point x="292.6" y="69.2998" type="curve" smooth="yes"/>
      <point x="294" y="74.2002"/>
      <point x="295.4" y="78.4004"/>
      <point x="297.5" y="81.9004" type="curve" smooth="yes"/>
      <point x="303.1" y="91"/>
      <point x="312.2" y="93.7998"/>
      <point x="321.3" y="98.7002" type="curve" smooth="yes"/>
      <point x="335.3" y="105.7"/>
      <point x="348.6" y="113.4"/>
      <point x="362.6" y="121.8" type="curve" smooth="yes"/>
      <point x="403.2" y="147.7"/>
      <point x="441.7" y="179.2"/>
      <point x="471.8" y="217" type="curve" smooth="yes"/>
      <point x="499.8" y="251.3"/>
      <point x="520.1" y="290.5"/>
      <point x="530.6" y="329" type="curve" smooth="yes"/>
      <point x="534.1" y="341.6"/>
      <point x="536.2" y="353.5"/>
      <point x="537.6" y="365.4" type="curve" smooth="yes"/>
      <point x="540.4" y="395.5"/>
      <point x="535.5" y="424.9"/>
      <point x="514.5" y="442.4" type="curve" smooth="yes"/>
      <point x="489.3" y="463.4"/>
      <point x="455.7" y="466.2"/>
      <point x="421.4" y="466.2" type="curve" smooth="yes"/>
      <point x="412.3" y="466.2"/>
      <point x="403.9" y="465.5"/>
      <point x="394.8" y="465.5" type="curve" smooth="yes"/>
      <point x="374.5" y="465.5"/>
      <point x="354.9" y="465.5"/>
      <point x="334.6" y="464.1" type="curve" smooth="yes"/>
      <point x="331.1" y="464.1" type="line"/>
      <point x="324.1" y="464.1" type="line" smooth="yes"/>
      <point x="321.3" y="464.1"/>
      <point x="317.8" y="463.4"/>
      <point x="314.3" y="462" type="curve" smooth="yes"/>
      <point x="305.9" y="458.5"/>
      <point x="294.7" y="443.1"/>
      <point x="287.7" y="436.8" type="curve" smooth="yes"/>
      <point x="267.4" y="417.2"/>
      <point x="244.3" y="393.4"/>
      <point x="235.9" y="368.2" type="curve" smooth="yes"/>
      <point x="235.2" y="367.5"/>
      <point x="235.2" y="366.1"/>
      <point x="234.5" y="364.7" type="curve"/>
      <point x="231" y="351.4"/>
      <point x="231.7" y="337.4"/>
      <point x="231" y="324.8" type="curve" smooth="yes"/>
      <point x="228.9" y="264.6"/>
      <point x="228.9" y="204.4"/>
      <point x="221.2" y="142.8" type="curve" smooth="yes"/>
      <point x="219.1" y="126"/>
      <point x="217.7" y="105"/>
      <point x="212.1" y="86.0996" type="curve" smooth="yes"/>
      <point x="210" y="76.2998"/>
      <point x="206.5" y="67.2002"/>
      <point x="201.6" y="59.5" type="curve" smooth="yes"/>
      <point x="195.3" y="46.9004"/>
      <point x="181.3" y="33.5996"/>
      <point x="170.8" y="23.0996" type="curve" smooth="yes"/>
      <point x="160.3" y="13.2998"/>
      <point x="149.8" y="2.7998"/>
      <point x="137.9" y="-5.59961" type="curve" smooth="yes"/>
      <point x="129.5" y="-11.2002"/>
      <point x="121.1" y="-16.0996"/>
      <point x="112" y="-20.2998" type="curve" smooth="yes"/>
      <point x="103.6" y="-23.7998"/>
      <point x="91" y="-29.4004"/>
      <point x="81.2002" y="-29.4004" type="curve" smooth="yes"/>
      <point x="76.2998" y="-29.4004"/>
      <point x="72.7998" y="-28"/>
      <point x="70" y="-25.9004" type="curve"/>
      <point x="63.7002" y="-18.9004"/>
      <point x="66.5" y="0.700195"/>
      <point x="69.2998" y="10.5" type="curve" smooth="yes"/>
      <point x="77" y="39.9004"/>
      <point x="82.5996" y="69.2998"/>
      <point x="90.2998" y="98" type="curve" smooth="yes"/>
      <point x="102.9" y="144.9"/>
      <point x="114.1" y="191.8"/>
      <point x="126" y="238" type="curve" smooth="yes"/>
      <point x="130.2" y="255.5" type="line" smooth="yes"/>
      <point x="141.4" y="296.8"/>
      <point x="154.7" y="336.7"/>
      <point x="177.8" y="377.3" type="curve" smooth="yes"/>
      <point x="189" y="398.3"/>
      <point x="203.7" y="417.9"/>
      <point x="220.5" y="436.8" type="curve" smooth="yes"/>
      <point x="228.9" y="445.9"/>
      <point x="240.8" y="454.3"/>
      <point x="247.8" y="463.4" type="curve"/>
      <point x="226.1" y="464.1"/>
      <point x="193.2" y="469.7"/>
      <point x="182" y="485.1" type="curve" smooth="yes"/>
      <point x="175.7" y="493.5"/>
      <point x="175.7" y="505.4"/>
      <point x="175.7" y="516.6" type="curve" smooth="yes"/>
      <point x="176.4" y="530.6"/>
      <point x="178.5" y="545.3"/>
      <point x="182" y="560" type="curve" smooth="yes"/>
      <point x="185.5" y="571.2"/>
      <point x="189" y="583.1"/>
      <point x="194.6" y="594.3" type="curve" smooth="yes"/>
      <point x="199.5" y="605.5"/>
      <point x="205.8" y="620.9"/>
      <point x="217" y="628.6" type="curve" smooth="yes"/>
      <point x="226.1" y="634.9"/>
      <point x="238" y="636.3"/>
      <point x="249.2" y="636.3" type="curve" smooth="yes"/>
      <point x="259.7" y="636.3"/>
      <point x="269.5" y="634.9"/>
    </contour>
  </outline>
</glyph>
<glyph name="Cacute" format="2">
  <advance width="465"/>
  <unicode hex="0106"/>
  <outline>
    <contour>
      <point x="420.7" y="473.2" type="curve"/>
      <point x="405.3" y="478.1"/>
      <point x="387.8" y="480.2"/>
      <point x="370.3" y="480.2" type="curve" smooth="yes"/>
      <point x="359.1" y="480.2"/>
      <point x="347.9" y="479.5"/>
      <point x="337.4" y="478.1" type="curve" smooth="yes"/>
      <point x="324.8" y="476.7"/>
      <point x="312.9" y="473.2"/>
      <point x="300.3" y="472.5" type="curve" smooth="yes"/>
      <point x="296.1" y="472.5" type="line" smooth="yes"/>
      <point x="282.1" y="472.5"/>
      <point x="268.8" y="475.3"/>
      <point x="255.5" y="477.4" type="curve" smooth="yes"/>
      <point x="238.7" y="479.5"/>
      <point x="219.1" y="476"/>
      <point x="208.6" y="487.2" type="curve" smooth="yes"/>
      <point x="192.5" y="504"/>
      <point x="193.9" y="529.9"/>
      <point x="201.6" y="557.2" type="curve" smooth="yes"/>
      <point x="208.6" y="584.5"/>
      <point x="221.2" y="612.5"/>
      <point x="228.2" y="634.9" type="curve" smooth="yes"/>
      <point x="233.8" y="651.7"/>
      <point x="238" y="679.7"/>
      <point x="254.8" y="693" type="curve" smooth="yes"/>
      <point x="261.1" y="697.9"/>
      <point x="270.2" y="699.3"/>
      <point x="278.6" y="699.3" type="curve" smooth="yes"/>
      <point x="287" y="699.3"/>
      <point x="294.7" y="697.9"/>
      <point x="301" y="697.9" type="curve"/>
      <point x="291.9" y="663.6"/>
      <point x="314.3" y="642.6"/>
      <point x="345.1" y="638.4" type="curve" smooth="yes"/>
      <point x="358.4" y="637"/>
      <point x="372.4" y="637"/>
      <point x="386.4" y="637" type="curve" smooth="yes"/>
      <point x="407.4" y="637" type="line"/>
      <point x="422.1" y="637" type="line" smooth="yes"/>
      <point x="471.1" y="635.6"/>
      <point x="520.1" y="634.9"/>
      <point x="569.8" y="634.9" type="curve"/>
      <point x="557.2" y="597.8"/>
      <point x="535.5" y="558.6"/>
      <point x="513.1" y="524.3" type="curve" smooth="yes"/>
      <point x="504" y="510.3"/>
      <point x="496.3" y="496.3"/>
      <point x="487.9" y="482.3" type="curve" smooth="yes"/>
      <point x="483.7" y="475.3"/>
      <point x="476.7" y="466.2"/>
      <point x="474.6" y="458.5" type="curve" smooth="yes"/>
      <point x="473.9" y="457.8"/>
      <point x="473.9" y="457.8"/>
      <point x="473.9" y="457.1" type="curve" smooth="yes"/>
      <point x="471.8" y="445.2"/>
      <point x="479.5" y="431.9"/>
      <point x="481.6" y="420.7" type="curve" smooth="yes"/>
      <point x="487.9" y="392.7"/>
      <point x="494.9" y="365.4"/>
      <point x="499.1" y="336.7" type="curve" smooth="yes"/>
      <point x="502.6" y="310.8"/>
      <point x="501.2" y="282.1"/>
      <point x="493.5" y="254.1" type="curve" smooth="yes"/>
      <point x="488.6" y="236.6"/>
      <point x="482.3" y="219.1"/>
      <point x="473.2" y="203" type="curve" smooth="yes"/>
      <point x="455" y="170.8"/>
      <point x="425.6" y="137.9"/>
      <point x="398.3" y="110.6" type="curve" smooth="yes"/>
      <point x="320.6" y="34.2998"/>
      <point x="212.8" y="-8.40039"/>
      <point x="116.9" y="-21.7002" type="curve" smooth="yes"/>
      <point x="100.1" y="-23.7998"/>
      <point x="80.5" y="-27.2998"/>
      <point x="62.2998" y="-27.2998" type="curve" smooth="yes"/>
      <point x="56" y="-27.2998"/>
      <point x="50.4004" y="-26.5996"/>
      <point x="44.7998" y="-25.9004" type="curve"/>
      <point x="37.0996" y="-23.7998"/>
      <point x="25.9004" y="-21.7002"/>
      <point x="25.9004" y="-12.5996" type="curve" smooth="yes"/>
      <point x="25.2002" y="-0.700195"/>
      <point x="28" y="13.2998"/>
      <point x="31.5" y="27.2998" type="curve" smooth="yes"/>
      <point x="34.2998" y="35.7002"/>
      <point x="36.4004" y="44.0996"/>
      <point x="39.9004" y="51.7998" type="curve" smooth="yes"/>
      <point x="49.7002" y="77.7002"/>
      <point x="62.2998" y="120.4"/>
      <point x="90.2998" y="137.9" type="curve" smooth="yes"/>
      <point x="96.5996" y="141.4"/>
      <point x="103.6" y="140.7"/>
      <point x="109.9" y="140.7" type="curve" smooth="yes"/>
      <point x="121.1" y="141.4"/>
      <point x="133" y="140.7"/>
      <point x="144.2" y="142.1" type="curve" smooth="yes"/>
      <point x="152.6" y="143.5"/>
      <point x="161" y="143.5"/>
      <point x="169.4" y="143.5" type="curve" smooth="yes"/>
      <point x="181.3" y="143.5"/>
      <point x="193.2" y="142.8"/>
      <point x="204.4" y="142.8" type="curve" smooth="yes"/>
      <point x="243.6" y="142.8"/>
      <point x="284.9" y="143.5"/>
      <point x="326.2" y="153.3" type="curve" smooth="yes"/>
      <point x="343.7" y="157.5"/>
      <point x="375.9" y="163.8"/>
      <point x="389.9" y="179.2" type="curve" smooth="yes"/>
      <point x="394.8" y="184.8"/>
      <point x="397.6" y="190.4"/>
      <point x="399.7" y="196" type="curve"/>
      <point x="401.8" y="205.8"/>
      <point x="400.4" y="215.6"/>
      <point x="397.6" y="224.7" type="curve" smooth="yes"/>
      <point x="389.2" y="252.7"/>
      <point x="369.6" y="273"/>
      <point x="350.7" y="293.3" type="curve" smooth="yes"/>
      <point x="345.1" y="298.9"/>
      <point x="331.1" y="308"/>
      <point x="330.4" y="317.1" type="curve" smooth="yes"/>
      <point x="330.4" y="317.8"/>
      <point x="330.4" y="319.2"/>
      <point x="331.1" y="320.6" type="curve" smooth="yes"/>
      <point x="331.8" y="324.1"/>
      <point x="333.9" y="327.6"/>
      <point x="335.3" y="330.4" type="curve" smooth="yes"/>
      <point x="340.2" y="343"/>
      <point x="346.5" y="355.6"/>
      <point x="354.2" y="367.5" type="curve" smooth="yes"/>
      <point x="376.6" y="401.8"/>
      <point x="403.2" y="436.8"/>
    </contour>
  </outline>
</glyph>
<glyph name="cacute" format="2">
  <advance width="426"/>
  <unicode hex="0107"/>
  <outline>
    <contour>
      <point x="334.6" y="142.8" type="curve"/>
      <point x="341.6" y="154"/>
      <point x="345.1" y="164.5"/>
      <point x="348.6" y="175" type="curve" smooth="yes"/>
      <point x="352.8" y="191.8"/>
      <point x="354.2" y="207.9"/>
      <point x="357" y="225.4" type="curve" smooth="yes"/>
      <point x="369.6" y="296.1"/>
      <point x="381.5" y="383.6"/>
      <point x="343.7" y="436.8" type="curve" smooth="yes"/>
      <point x="331.1" y="453.6"/>
      <point x="316.4" y="470.4"/>
      <point x="296.8" y="480.2" type="curve" smooth="yes"/>
      <point x="280.7" y="489.3"/>
      <point x="256.2" y="494.9"/>
      <point x="253.4" y="516.6" type="curve" smooth="yes"/>
      <point x="253.4" y="520.1"/>
      <point x="253.4" y="523.6"/>
      <point x="254.8" y="527.8" type="curve" smooth="yes"/>
      <point x="256.9" y="534.8"/>
      <point x="259.7" y="541.8"/>
      <point x="262.5" y="548.1" type="curve" smooth="yes"/>
      <point x="275.1" y="580.3"/>
      <point x="295.4" y="610.4"/>
      <point x="322.7" y="634.9" type="curve" smooth="yes"/>
      <point x="331.8" y="643.3"/>
      <point x="348.6" y="659.4"/>
      <point x="361.2" y="660.8" type="curve" smooth="yes"/>
      <point x="364" y="661.5"/>
      <point x="366.8" y="661.5"/>
      <point x="369.6" y="661.5" type="curve" smooth="yes"/>
      <point x="415.8" y="661.5"/>
      <point x="447.3" y="623"/>
      <point x="469" y="592.2" type="curve" smooth="yes"/>
      <point x="497" y="552.3"/>
      <point x="483.7" y="485.1"/>
      <point x="471.1" y="432.6" type="curve" smooth="yes"/>
      <point x="446.6" y="332.5"/>
      <point x="420" y="232.4"/>
      <point x="393.4" y="132.3" type="curve" smooth="yes"/>
      <point x="366.1" y="32.2002" type="line" smooth="yes"/>
      <point x="363.3" y="21.7002"/>
      <point x="354.9" y="0.700195"/>
      <point x="343.7" y="-4.90039" type="curve"/>
      <point x="340.9" y="-7"/>
      <point x="338.1" y="-7"/>
      <point x="336" y="-7" type="curve" smooth="yes"/>
      <point x="329.7" y="-7" type="line"/>
      <point x="298.9" y="-7" type="line"/>
      <point x="315.7" y="57.4004" type="line" smooth="yes"/>
      <point x="317.1" y="63"/>
      <point x="319.9" y="70"/>
      <point x="322" y="76.2998" type="curve"/>
      <point x="322.7" y="80.5"/>
      <point x="323.4" y="84"/>
      <point x="323.4" y="87.5" type="curve" smooth="yes"/>
      <point x="322.7" y="102.2"/>
      <point x="308.7" y="107.8"/>
      <point x="292.6" y="107.8" type="curve" smooth="yes"/>
      <point x="278.6" y="107.8"/>
      <point x="262.5" y="102.9"/>
      <point x="252" y="95.9004" type="curve" smooth="yes"/>
      <point x="213.5" y="68.5996"/>
      <point x="192.5" y="21"/>
      <point x="149.1" y="-1.40039" type="curve" smooth="yes"/>
      <point x="130.9" y="-11.2002"/>
      <point x="112" y="-15.4004"/>
      <point x="93.7998" y="-15.4004" type="curve" smooth="yes"/>
      <point x="71.4004" y="-15.4004"/>
      <point x="50.4004" y="-9.09961"/>
      <point x="33.5996" y="1.40039" type="curve" smooth="yes"/>
      <point x="17.5" y="11.9004"/>
      <point x="4.2002" y="23.0996"/>
      <point x="6.2998" y="44.7998" type="curve"/>
      <point x="30.7998" y="52.5"/>
      <point x="55.2998" y="67.9004"/>
      <point x="71.4004" y="90.2998" type="curve" smooth="yes"/>
      <point x="86.7998" y="112.7"/>
      <point x="91.7002" y="135.8"/>
      <point x="114.1" y="155.4" type="curve" smooth="yes"/>
      <point x="123.2" y="163.8"/>
      <point x="133.7" y="171.5"/>
      <point x="144.9" y="177.8" type="curve" smooth="yes"/>
      <point x="166.6" y="190.4"/>
      <point x="188.3" y="195.3"/>
      <point x="208.6" y="195.3" type="curve" smooth="yes"/>
      <point x="257.6" y="195.3"/>
      <point x="301" y="166.6"/>
    </contour>
  </outline>
</glyph>
<glyph name="Ccircumflex" format="2">
  <advance width="501"/>
  <unicode hex="0108"/>
  <outline>
    <contour>
      <point x="231" y="694.4" type="curve"/>
      <point x="274.4" y="694.4" type="line"/>
      <point x="273" y="674.8"/>
      <point x="277.9" y="648.2"/>
      <point x="294.7" y="639.8" type="curve" smooth="yes"/>
      <point x="305.9" y="634.9"/>
      <point x="319.9" y="633.5"/>
      <point x="334.6" y="633.5" type="curve" smooth="yes"/>
      <point x="348.6" y="633.5"/>
      <point x="363.3" y="634.9"/>
      <point x="375.9" y="634.9" type="curve" smooth="yes"/>
      <point x="544.6" y="634.9" type="line"/>
      <point x="613.2" y="634.9" type="line"/>
      <point x="623.7" y="634.9" type="line" smooth="yes"/>
      <point x="631.4" y="634.9"/>
      <point x="637" y="633.5"/>
      <point x="638.4" y="624.4" type="curve" smooth="yes"/>
      <point x="639.8" y="611.8"/>
      <point x="639.1" y="598.5"/>
      <point x="635.6" y="585.2" type="curve" smooth="yes"/>
      <point x="628.6" y="560"/>
      <point x="613.9" y="534.8"/>
      <point x="594.3" y="514.5" type="curve" smooth="yes"/>
      <point x="581.7" y="501.2"/>
      <point x="564.2" y="497"/>
      <point x="555.8" y="480.2" type="curve"/>
      <point x="554.4" y="476"/>
      <point x="552.3" y="471.8"/>
      <point x="551.6" y="466.9" type="curve" smooth="yes"/>
      <point x="548.1" y="454.3"/>
      <point x="546.7" y="441"/>
      <point x="543.9" y="429.1" type="curve" smooth="yes"/>
      <point x="543.2" y="427" type="line" smooth="yes"/>
      <point x="535.5" y="400.4"/>
      <point x="523.6" y="373.1"/>
      <point x="511.7" y="347.2" type="curve" smooth="yes"/>
      <point x="475.3" y="264.6"/>
      <point x="425.6" y="184.1"/>
      <point x="387.1" y="102.2" type="curve" smooth="yes"/>
      <point x="373.8" y="73.5"/>
      <point x="357.7" y="44.7998"/>
      <point x="341.6" y="17.5" type="curve" smooth="yes"/>
      <point x="334.6" y="6.2998"/>
      <point x="327.6" y="-9.09961"/>
      <point x="317.1" y="-18.2002" type="curve" smooth="yes"/>
      <point x="310.1" y="-25.2002"/>
      <point x="296.1" y="-28.7002"/>
      <point x="284.9" y="-28.7002" type="curve" smooth="yes"/>
      <point x="279.3" y="-28.7002"/>
      <point x="275.1" y="-28"/>
      <point x="272.3" y="-26.5996" type="curve" smooth="yes"/>
      <point x="263.9" y="-22.4004"/>
      <point x="257.6" y="-14.7002"/>
      <point x="251.3" y="-8.40039" type="curve" smooth="yes"/>
      <point x="233.8" y="10.5"/>
      <point x="209.3" y="38.5"/>
      <point x="217.7" y="70.7002" type="curve"/>
      <point x="218.4" y="72.0996" type="line"/>
      <point x="229.6" y="112.7"/>
      <point x="263.2" y="151.9"/>
      <point x="291.9" y="186.9" type="curve" smooth="yes"/>
      <point x="429.1" y="359.8" type="line" smooth="yes"/>
      <point x="450.1" y="386.4"/>
      <point x="482.3" y="416.5"/>
      <point x="490" y="447.3" type="curve" smooth="yes"/>
      <point x="491.4" y="450.8"/>
      <point x="492.8" y="455"/>
      <point x="494.2" y="459.9" type="curve" smooth="yes"/>
      <point x="494.9" y="462.7"/>
      <point x="495.6" y="465.5"/>
      <point x="494.9" y="467.6" type="curve" smooth="yes"/>
      <point x="494.2" y="472.5"/>
      <point x="480.9" y="471.8"/>
      <point x="476.7" y="472.5" type="curve" smooth="yes"/>
      <point x="463.4" y="473.9"/>
      <point x="448.7" y="475.3"/>
      <point x="434.7" y="475.3" type="curve" smooth="yes"/>
      <point x="427" y="475.3"/>
      <point x="419.3" y="474.6"/>
      <point x="411.6" y="473.9" type="curve" smooth="yes"/>
      <point x="398.3" y="472.5"/>
      <point x="385.7" y="473.2"/>
      <point x="372.4" y="472.5" type="curve" smooth="yes"/>
      <point x="337.4" y="470.4"/>
      <point x="303.1" y="468.3"/>
      <point x="268.1" y="466.9" type="curve" smooth="yes"/>
      <point x="261.8" y="466.2"/>
      <point x="254.8" y="466.2"/>
      <point x="248.5" y="466.2" type="curve" smooth="yes"/>
      <point x="223.3" y="466.2"/>
      <point x="197.4" y="469"/>
      <point x="182" y="483" type="curve" smooth="yes"/>
      <point x="166.6" y="496.3"/>
      <point x="171.5" y="524.3"/>
      <point x="176.4" y="545.3" type="curve" smooth="yes"/>
      <point x="177.1" y="550.2"/>
      <point x="178.5" y="555.1"/>
      <point x="179.9" y="559.3" type="curve" smooth="yes"/>
      <point x="191.8" y="604.8"/>
      <point x="212.8" y="648.9"/>
    </contour>
  </outline>
</glyph>
<glyph name="ccircumflex" format="2">
  <advance width="580"/>
  <unicode hex="0109"/>
  <outline>
    <contour>
      <point x="200.2" y="354.9" type="line"/>
      <point x="190.4" y="304.5"/>
      <point x="194.6" y="248.5"/>
      <point x="222.6" y="214.2" type="curve" smooth="yes"/>
      <point x="233.8" y="200.2"/>
      <point x="250.6" y="190.4"/>
      <point x="266" y="181.3" type="curve" smooth="yes"/>
      <point x="290.5" y="166.6"/>
      <point x="331.1" y="165.2"/>
      <point x="346.5" y="140" type="curve" smooth="yes"/>
      <point x="352.8" y="129.5"/>
      <point x="349.3" y="116.2"/>
      <point x="346.5" y="102.9" type="curve" smooth="yes"/>
      <point x="343.7" y="88.2002"/>
      <point x="340.2" y="72.7998"/>
      <point x="336.7" y="58.0996" type="curve" smooth="yes"/>
      <point x="332.5" y="42"/>
      <point x="326.9" y="26.5996"/>
      <point x="319.9" y="11.9004" type="curve" smooth="yes"/>
      <point x="315" y="0.700195"/>
      <point x="305.9" y="-17.5"/>
      <point x="294.7" y="-24.5" type="curve" smooth="yes"/>
      <point x="289.1" y="-28"/>
      <point x="280.7" y="-28"/>
      <point x="275.1" y="-28.7002" type="curve" smooth="yes"/>
      <point x="270.9" y="-28.7002"/>
      <point x="266" y="-29.4004"/>
      <point x="261.8" y="-29.4004" type="curve" smooth="yes"/>
      <point x="247.1" y="-29.4004"/>
      <point x="233.1" y="-26.5996"/>
      <point x="220.5" y="-21.7002" type="curve" smooth="yes"/>
      <point x="196" y="-11.2002"/>
      <point x="170.1" y="4.90039"/>
      <point x="153.3" y="25.2002" type="curve" smooth="yes"/>
      <point x="112" y="76.2998"/>
      <point x="107.1" y="154"/>
      <point x="119.7" y="226.8" type="curve" smooth="yes"/>
      <point x="122.5" y="240.8"/>
      <point x="125.3" y="254.8"/>
      <point x="128.8" y="268.8" type="curve" smooth="yes"/>
      <point x="134.4" y="287.7"/>
      <point x="140" y="305.9"/>
      <point x="147.7" y="323.4" type="curve" smooth="yes"/>
      <point x="150.5" y="330.4"/>
      <point x="155.4" y="350"/>
      <point x="161.7" y="354.2" type="curve" smooth="yes"/>
      <point x="163.1" y="354.9"/>
      <point x="165.2" y="354.9"/>
      <point x="167.3" y="354.9" type="curve" smooth="yes"/>
      <point x="172.9" y="354.9" type="line"/>
    </contour>
    <contour>
      <point x="252" y="690.2" type="curve" smooth="yes"/>
      <point x="254.8" y="692.3"/>
      <point x="259.7" y="691.6"/>
      <point x="263.2" y="691.6" type="curve" smooth="yes"/>
      <point x="275.1" y="691.6" type="line" smooth="yes"/>
      <point x="282.1" y="691.6"/>
      <point x="289.1" y="690.9"/>
      <point x="292.6" y="686" type="curve" smooth="yes"/>
      <point x="297.5" y="679.7"/>
      <point x="292.6" y="671.3"/>
      <point x="295.4" y="664.3" type="curve" smooth="yes"/>
      <point x="302.4" y="644"/>
      <point x="319.2" y="633.5"/>
      <point x="340.9" y="631.4" type="curve" smooth="yes"/>
      <point x="352.8" y="630"/>
      <point x="364.7" y="629.3"/>
      <point x="377.3" y="629.3" type="curve" smooth="yes"/>
      <point x="411.6" y="629.3"/>
      <point x="447.3" y="632.8"/>
      <point x="480.9" y="632.8" type="curve" smooth="yes"/>
      <point x="529.9" y="632.8"/>
      <point x="575.4" y="626.5"/>
      <point x="608.3" y="594.3" type="curve" smooth="yes"/>
      <point x="632.8" y="570.5"/>
      <point x="639.8" y="533.4"/>
      <point x="644" y="497.7" type="curve" smooth="yes"/>
      <point x="648.9" y="445.9"/>
      <point x="641.9" y="389.2"/>
      <point x="627.2" y="333.2" type="curve" smooth="yes"/>
      <point x="617.4" y="297.5"/>
      <point x="604.8" y="261.8"/>
      <point x="590.1" y="227.5" type="curve" smooth="yes"/>
      <point x="578.2" y="200.2"/>
      <point x="564.9" y="173.6"/>
      <point x="550.2" y="147" type="curve" smooth="yes"/>
      <point x="541.8" y="131.6"/>
      <point x="534.8" y="117.6"/>
      <point x="517.3" y="109.2" type="curve" smooth="yes"/>
      <point x="511" y="106.4"/>
      <point x="504.7" y="105"/>
      <point x="497.7" y="105" type="curve" smooth="yes"/>
      <point x="482.3" y="105"/>
      <point x="467.6" y="112"/>
      <point x="462" y="122.5" type="curve" smooth="yes"/>
      <point x="459.2" y="128.8"/>
      <point x="459.2" y="137.2"/>
      <point x="461.3" y="144.9" type="curve" smooth="yes"/>
      <point x="462" y="149.1"/>
      <point x="464.1" y="152.6"/>
      <point x="465.5" y="156.8" type="curve"/>
      <point x="476" y="177.1"/>
      <point x="496.3" y="196.7"/>
      <point x="511.7" y="214.9" type="curve" smooth="yes"/>
      <point x="529.2" y="235.9"/>
      <point x="543.9" y="259"/>
      <point x="554.4" y="282.8" type="curve" smooth="yes"/>
      <point x="560.7" y="296.1"/>
      <point x="565.6" y="310.1"/>
      <point x="569.8" y="324.1" type="curve" smooth="yes"/>
      <point x="571.9" y="333.2"/>
      <point x="574" y="342.3"/>
      <point x="574.7" y="350.7" type="curve" smooth="yes"/>
      <point x="576.1" y="363.3"/>
      <point x="576.1" y="376.6"/>
      <point x="574" y="387.8" type="curve" smooth="yes"/>
      <point x="557.2" y="458.5"/>
      <point x="477.4" y="466.2"/>
      <point x="403.9" y="466.2" type="curve" smooth="yes"/>
      <point x="386.4" y="466.2"/>
      <point x="368.2" y="465.5"/>
      <point x="352.1" y="465.5" type="curve" smooth="yes"/>
      <point x="333.2" y="465.5"/>
      <point x="314.3" y="464.8"/>
      <point x="295.4" y="464.8" type="curve" smooth="yes"/>
      <point x="286.3" y="464.8"/>
      <point x="277.2" y="464.1"/>
      <point x="268.1" y="464.1" type="curve" smooth="yes"/>
      <point x="247.1" y="464.1"/>
      <point x="226.1" y="466.2"/>
      <point x="210" y="476" type="curve" smooth="yes"/>
      <point x="187.6" y="489.3"/>
      <point x="187.6" y="511"/>
      <point x="191.8" y="538.3" type="curve" smooth="yes"/>
      <point x="193.2" y="548.8"/>
      <point x="195.3" y="558.6"/>
      <point x="198.1" y="568.4" type="curve" smooth="yes"/>
      <point x="204.4" y="591.5"/>
      <point x="213.5" y="615.3"/>
      <point x="224" y="637.7" type="curve" smooth="yes"/>
      <point x="229.6" y="651"/>
      <point x="235.9" y="663.6"/>
      <point x="242.9" y="676.9" type="curve" smooth="yes"/>
      <point x="245" y="680.4"/>
      <point x="247.8" y="687.4"/>
    </contour>
  </outline>
</glyph>
<glyph name="cdotaccent" format="2">
  <advance width="270"/>
  <unicode hex="010B"/>
  <outline>
    <contour>
      <point x="373.1" y="651.7" type="line" smooth="yes"/>
      <point x="386.4" y="651.7"/>
      <point x="383.6" y="628.6"/>
      <point x="384.3" y="619.5" type="curve" smooth="yes"/>
      <point x="385.7" y="591.5"/>
      <point x="392" y="560"/>
      <point x="384.3" y="529.9" type="curve" smooth="yes"/>
      <point x="382.2" y="523.6"/>
      <point x="380.1" y="517.3"/>
      <point x="377.3" y="511.7" type="curve" smooth="yes"/>
      <point x="359.8" y="475.3"/>
      <point x="323.4" y="451.5"/>
      <point x="292.6" y="425.6" type="curve" smooth="yes"/>
      <point x="277.2" y="413"/>
      <point x="261.1" y="399.7"/>
      <point x="252" y="382.2" type="curve" smooth="yes"/>
      <point x="249.9" y="378"/>
      <point x="248.5" y="373.8"/>
      <point x="247.8" y="370.3" type="curve" smooth="yes"/>
      <point x="242.9" y="353.5"/>
      <point x="246.4" y="338.8"/>
      <point x="247.1" y="322.7" type="curve" smooth="yes"/>
      <point x="247.8" y="304.5"/>
      <point x="245.7" y="284.9"/>
      <point x="242.9" y="265.3" type="curve" smooth="yes"/>
      <point x="240.1" y="247.8"/>
      <point x="236.6" y="229.6"/>
      <point x="231.7" y="211.4" type="curve" smooth="yes"/>
      <point x="219.1" y="166.6"/>
      <point x="201.6" y="121.1"/>
      <point x="184.8" y="75.5996" type="curve" smooth="yes"/>
      <point x="175.7" y="52.5"/>
      <point x="167.3" y="32.9004"/>
      <point x="152.6" y="10.5" type="curve" smooth="yes"/>
      <point x="144.9" y="-2.09961"/>
      <point x="133.7" y="-16.7998"/>
      <point x="119" y="-23.0996" type="curve" smooth="yes"/>
      <point x="112.7" y="-25.9004"/>
      <point x="105.7" y="-26.5996"/>
      <point x="98.7002" y="-26.5996" type="curve" smooth="yes"/>
      <point x="87.5" y="-26.5996" type="line"/>
      <point x="84" y="-25.9004"/>
      <point x="77.7002" y="-25.9004"/>
      <point x="76.2998" y="-23.0996" type="curve" smooth="yes"/>
      <point x="75.5996" y="-21.7002"/>
      <point x="76.2998" y="-19.5996"/>
      <point x="77" y="-17.5" type="curve" smooth="yes"/>
      <point x="77.7002" y="-14.7002"/>
      <point x="79.0996" y="-11.9004"/>
      <point x="79.7998" y="-9.7998" type="curve" smooth="yes"/>
      <point x="83.2998" y="-0.700195"/>
      <point x="85.4004" y="9.09961"/>
      <point x="89.5996" y="18.2002" type="curve" smooth="yes"/>
      <point x="107.8" y="65.7998"/>
      <point x="122.5" y="116.2"/>
      <point x="135.1" y="164.5" type="curve" smooth="yes"/>
      <point x="156.8" y="242.9"/>
      <point x="177.1" y="320.6"/>
      <point x="182" y="398.3" type="curve" smooth="yes"/>
      <point x="184.1" y="429.8"/>
      <point x="182.7" y="459.2"/>
      <point x="183.4" y="490" type="curve" smooth="yes"/>
      <point x="183.4" y="504.7"/>
      <point x="184.1" y="520.1"/>
      <point x="188.3" y="534.8" type="curve" smooth="yes"/>
      <point x="189.7" y="540.4"/>
      <point x="191.1" y="545.3"/>
      <point x="193.9" y="550.2" type="curve" smooth="yes"/>
      <point x="203" y="571.2"/>
      <point x="221.9" y="583.1"/>
      <point x="240.1" y="595.7" type="curve" smooth="yes"/>
      <point x="280" y="624.4"/>
      <point x="325.5" y="651.7"/>
      <point x="370.3" y="651.7" type="curve" smooth="yes"/>
    </contour>
  </outline>
</glyph>
<glyph name="Ccaron" format="2">
  <advance width="541"/>
  <unicode hex="010C"/>
  <outline>
    <contour>
      <point x="237.3" y="460.6" type="curve"/>
      <point x="219.1" y="464.1"/>
      <point x="196" y="480.9"/>
      <point x="193.2" y="498.4" type="curve" smooth="yes"/>
      <point x="191.8" y="507.5"/>
      <point x="196" y="518.7"/>
      <point x="197.4" y="527.8" type="curve" smooth="yes"/>
      <point x="203.7" y="555.8" type="line" smooth="yes"/>
      <point x="210" y="578.9"/>
      <point x="218.4" y="602"/>
      <point x="226.8" y="625.1" type="curve" smooth="yes"/>
      <point x="233.1" y="642.6"/>
      <point x="240.8" y="660.1"/>
      <point x="247.8" y="677.6" type="curve" smooth="yes"/>
      <point x="249.2" y="681.8"/>
      <point x="252" y="692.3"/>
      <point x="256.9" y="693.7" type="curve" smooth="yes"/>
      <point x="260.4" y="695.1"/>
      <point x="264.6" y="695.1"/>
      <point x="268.8" y="695.1" type="curve" smooth="yes"/>
      <point x="275.8" y="695.1"/>
      <point x="282.8" y="694.4"/>
      <point x="289.1" y="694.4" type="curve" smooth="yes"/>
      <point x="291.9" y="694.4"/>
      <point x="297.5" y="695.1"/>
      <point x="299.6" y="693" type="curve" smooth="yes"/>
      <point x="305.2" y="688.1"/>
      <point x="303.8" y="671.3"/>
      <point x="306.6" y="664.3" type="curve" smooth="yes"/>
      <point x="312.2" y="648.2"/>
      <point x="326.2" y="644"/>
      <point x="343" y="640.5" type="curve" smooth="yes"/>
      <point x="362.6" y="636.3"/>
      <point x="383.6" y="635.6"/>
      <point x="405.3" y="635.6" type="curve" smooth="yes"/>
      <point x="427" y="635.6"/>
      <point x="449.4" y="636.3"/>
      <point x="471.1" y="636.3" type="curve" smooth="yes"/>
      <point x="488.6" y="636.3"/>
      <point x="506.1" y="635.6"/>
      <point x="522.9" y="633.5" type="curve" smooth="yes"/>
      <point x="547.4" y="629.3"/>
      <point x="574.7" y="622.3"/>
      <point x="590.1" y="604.8" type="curve" smooth="yes"/>
      <point x="613.9" y="576.1"/>
      <point x="619.5" y="528.5"/>
      <point x="620.2" y="487.9" type="curve" smooth="yes"/>
      <point x="620.9" y="443.1"/>
      <point x="614.6" y="394.8"/>
      <point x="602" y="345.8" type="curve" smooth="yes"/>
      <point x="583.8" y="278.6"/>
      <point x="552.3" y="210.7"/>
      <point x="508.9" y="151.9" type="curve" smooth="yes"/>
      <point x="473.2" y="102.9"/>
      <point x="429.1" y="53.2002"/>
      <point x="371.7" y="32.2002" type="curve" smooth="yes"/>
      <point x="356.3" y="27.2998"/>
      <point x="340.9" y="24.5"/>
      <point x="326.2" y="23.0996" type="curve" smooth="yes"/>
      <point x="322.7" y="23.0996"/>
      <point x="319.9" y="22.4004"/>
      <point x="316.4" y="22.4004" type="curve" smooth="yes"/>
      <point x="313.6" y="22.4004"/>
      <point x="310.8" y="23.0996"/>
      <point x="308.7" y="24.5" type="curve" smooth="yes"/>
      <point x="302.4" y="28.7002"/>
      <point x="301" y="36.4004"/>
      <point x="298.2" y="43.4004" type="curve" smooth="yes"/>
      <point x="296.1" y="50.4004"/>
      <point x="294.7" y="55.2998"/>
      <point x="296.8" y="61.5996" type="curve" smooth="yes"/>
      <point x="296.8" y="63"/>
      <point x="297.5" y="65.0996"/>
      <point x="298.9" y="67.2002" type="curve" smooth="yes"/>
      <point x="314.3" y="101.5"/>
      <point x="356.3" y="112"/>
      <point x="386.4" y="128.8" type="curve" smooth="yes"/>
      <point x="420" y="147"/>
      <point x="452.2" y="176.4"/>
      <point x="476" y="205.8" type="curve" smooth="yes"/>
      <point x="506.1" y="243.6"/>
      <point x="527.8" y="287"/>
      <point x="539" y="329.7" type="curve" smooth="yes"/>
      <point x="541.1" y="338.8"/>
      <point x="543.2" y="347.9"/>
      <point x="544.6" y="357" type="curve" smooth="yes"/>
      <point x="549.5" y="385"/>
      <point x="550.9" y="410.9"/>
      <point x="536.9" y="432.6" type="curve" smooth="yes"/>
      <point x="525" y="450.1"/>
      <point x="504" y="458.5"/>
      <point x="483" y="462.7" type="curve" smooth="yes"/>
      <point x="462.7" y="466.9"/>
      <point x="441.7" y="468.3"/>
      <point x="420" y="468.3" type="curve" smooth="yes"/>
      <point x="398.3" y="468.3"/>
      <point x="375.9" y="466.9"/>
      <point x="354.2" y="465.5" type="curve" smooth="yes"/>
      <point x="344.4" y="465.5" type="line" smooth="yes"/>
      <point x="334.6" y="465.5"/>
      <point x="324.8" y="466.2"/>
      <point x="314.3" y="466.9" type="curve" smooth="yes"/>
      <point x="311.5" y="466.9"/>
      <point x="307.3" y="468.3"/>
      <point x="303.1" y="468.3" type="curve" smooth="yes"/>
      <point x="301.7" y="468.3"/>
      <point x="301" y="468.3"/>
      <point x="299.6" y="467.6" type="curve"/>
      <point x="293.3" y="466.2"/>
      <point x="284.9" y="447.3"/>
      <point x="282.1" y="442.4" type="curve" smooth="yes"/>
      <point x="268.8" y="422.1"/>
      <point x="256.2" y="401.8"/>
      <point x="250.6" y="380.1" type="curve" smooth="yes"/>
      <point x="248.5" y="373.1"/>
      <point x="247.8" y="366.1"/>
      <point x="247.8" y="358.4" type="curve" smooth="yes"/>
      <point x="247.8" y="329.7"/>
      <point x="240.8" y="298.2"/>
      <point x="239.4" y="269.5" type="curve" smooth="yes"/>
      <point x="236.6" y="224"/>
      <point x="236.6" y="177.8"/>
      <point x="229.6" y="132.3" type="curve" smooth="yes"/>
      <point x="228.2" y="117.6"/>
      <point x="226.8" y="99.4004"/>
      <point x="222.6" y="83.2998" type="curve" smooth="yes"/>
      <point x="220.5" y="76.2998"/>
      <point x="218.4" y="70"/>
      <point x="214.9" y="64.4004" type="curve" smooth="yes"/>
      <point x="210" y="55.2998"/>
      <point x="201.6" y="46.2002"/>
      <point x="194.6" y="39.2002" type="curve" smooth="yes"/>
      <point x="170.8" y="12.5996"/>
      <point x="140" y="-13.2998"/>
      <point x="107.1" y="-24.5" type="curve" smooth="yes"/>
      <point x="100.8" y="-26.5996"/>
      <point x="92.4004" y="-29.4004"/>
      <point x="85.4004" y="-29.4004" type="curve" smooth="yes"/>
      <point x="84" y="-29.4004"/>
      <point x="82.5996" y="-28.7002"/>
      <point x="81.9004" y="-28.7002" type="curve" smooth="yes"/>
      <point x="70" y="-26.5996"/>
      <point x="61.5996" y="-9.09961"/>
      <point x="62.2998" y="2.7998" type="curve" smooth="yes"/>
      <point x="62.2998" y="4.2002"/>
      <point x="63" y="6.2998"/>
      <point x="63" y="7.7002" type="curve"/>
      <point x="64.4004" y="11.9004"/>
      <point x="66.5" y="16.0996"/>
      <point x="67.9004" y="20.2998" type="curve" smooth="yes"/>
      <point x="71.4004" y="32.9004"/>
      <point x="74.2002" y="45.5"/>
      <point x="78.4004" y="58.0996" type="curve" smooth="yes"/>
      <point x="88.9004" y="88.9004"/>
      <point x="95.9004" y="119"/>
      <point x="106.4" y="149.8" type="curve" smooth="yes"/>
      <point x="154.7" y="301.7" type="line" smooth="yes"/>
      <point x="163.1" y="327.6"/>
      <point x="170.8" y="355.6"/>
      <point x="183.4" y="380.8" type="curve" smooth="yes"/>
      <point x="196.7" y="408.8"/>
      <point x="219.1" y="434.7"/>
    </contour>
  </outline>
</glyph>
<glyph name="Dcaron" format="2">
  <advance width="270"/>
  <unicode hex="010E"/>
  <outline>
    <contour>
      <point x="281.4" y="688.1" type="line"/>
      <point x="282.1" y="687.4" type="line"/>
    </contour>
    <contour>
      <point x="237.3" y="681.8" type="curve"/>
      <point x="281.4" y="687.4" type="line"/>
      <point x="280" y="683.2"/>
      <point x="277.9" y="679.7"/>
      <point x="276.5" y="675.5" type="curve"/>
      <point x="276.5" y="674.8"/>
      <point x="275.8" y="673.4"/>
      <point x="275.8" y="672.7" type="curve" smooth="yes"/>
      <point x="275.1" y="664.3"/>
      <point x="274.4" y="651.7"/>
      <point x="277.2" y="644.7" type="curve" smooth="yes"/>
      <point x="290.5" y="611.8"/>
      <point x="336.7" y="604.1"/>
      <point x="364" y="586.6" type="curve" smooth="yes"/>
      <point x="384.3" y="573.3"/>
      <point x="399" y="551.6"/>
      <point x="396.9" y="524.3" type="curve" smooth="yes"/>
      <point x="396.2" y="518"/>
      <point x="394.8" y="512.4"/>
      <point x="393.4" y="506.1" type="curve" smooth="yes"/>
      <point x="391.3" y="499.1"/>
      <point x="388.5" y="491.4"/>
      <point x="386.4" y="484.4" type="curve" smooth="yes"/>
      <point x="361.9" y="412.3"/>
      <point x="315.7" y="343"/>
      <point x="255.5" y="287" type="curve" smooth="yes"/>
      <point x="242.9" y="274.4"/>
      <point x="228.9" y="262.5"/>
      <point x="214.9" y="252" type="curve" smooth="yes"/>
      <point x="208.6" y="246.4"/>
      <point x="201.6" y="241.5"/>
      <point x="194.6" y="241.5" type="curve" smooth="yes"/>
      <point x="192.5" y="241.5"/>
      <point x="190.4" y="241.5"/>
      <point x="188.3" y="242.9" type="curve" smooth="yes"/>
      <point x="183.4" y="245"/>
      <point x="180.6" y="252.7"/>
      <point x="177.8" y="256.9" type="curve" smooth="yes"/>
      <point x="175" y="260.4"/>
      <point x="170.1" y="265.3"/>
      <point x="170.1" y="270.2" type="curve" smooth="yes"/>
      <point x="170.1" y="271.6" type="line"/>
      <point x="170.8" y="275.8"/>
      <point x="177.8" y="279.3"/>
      <point x="180.6" y="282.1" type="curve"/>
      <point x="191.8" y="290.5"/>
      <point x="202.3" y="300.3"/>
      <point x="212.8" y="310.1" type="curve" smooth="yes"/>
      <point x="238" y="333.2"/>
      <point x="272.3" y="367.5"/>
      <point x="281.4" y="401.1" type="curve" smooth="yes"/>
      <point x="283.5" y="408.8"/>
      <point x="284.2" y="416.5"/>
      <point x="282.8" y="424.2" type="curve" smooth="yes"/>
      <point x="282.1" y="434"/>
      <point x="262.5" y="441"/>
      <point x="254.8" y="445.2" type="curve" smooth="yes"/>
      <point x="228.2" y="457.8"/>
      <point x="198.1" y="467.6"/>
      <point x="178.5" y="488.6" type="curve" smooth="yes"/>
      <point x="162.4" y="506.1"/>
      <point x="161.7" y="530.6"/>
      <point x="168.7" y="556.5" type="curve" smooth="yes"/>
      <point x="177.1" y="587.3"/>
      <point x="196" y="620.2"/>
      <point x="212.8" y="645.4" type="curve" smooth="yes"/>
      <point x="220.5" y="657.3"/>
      <point x="230.3" y="669.2"/>
    </contour>
  </outline>
</glyph>
<glyph name="dcaron" format="2">
  <advance width="465"/>
  <unicode hex="010F"/>
  <outline>
    <contour>
      <point x="461.3" y="468.3" type="curve"/>
      <point x="272.3" y="468.3" type="line" smooth="yes"/>
      <point x="261.1" y="468.3"/>
      <point x="248.5" y="467.6"/>
      <point x="236.6" y="467.6" type="curve" smooth="yes"/>
      <point x="217.7" y="467.6"/>
      <point x="199.5" y="469.7"/>
      <point x="186.2" y="480.9" type="curve" smooth="yes"/>
      <point x="162.4" y="499.8"/>
      <point x="168.7" y="525"/>
      <point x="177.1" y="556.5" type="curve"/>
      <point x="177.8" y="557.9" type="line"/>
      <point x="184.8" y="583.1"/>
      <point x="191.8" y="607.6"/>
      <point x="201.6" y="632.8" type="curve" smooth="yes"/>
      <point x="216.3" y="670.6" type="line" smooth="yes"/>
      <point x="218.4" y="674.8"/>
      <point x="219.8" y="682.5"/>
      <point x="223.3" y="686" type="curve" smooth="yes"/>
      <point x="226.8" y="688.8"/>
      <point x="233.8" y="688.1"/>
      <point x="237.3" y="688.8" type="curve" smooth="yes"/>
      <point x="249.2" y="690.2"/>
      <point x="261.8" y="691.6"/>
      <point x="274.4" y="694.4" type="curve"/>
      <point x="267.4" y="640.5"/>
      <point x="317.1" y="627.9"/>
      <point x="362.6" y="627.9" type="curve"/>
      <point x="362.6" y="627.9" type="line"/>
      <point x="391.3" y="627.9"/>
      <point x="424.2" y="633.5"/>
      <point x="455" y="633.5" type="curve" smooth="yes"/>
      <point x="486.5" y="633.5"/>
      <point x="515.2" y="627.9"/>
      <point x="532.7" y="605.5" type="curve" smooth="yes"/>
      <point x="539" y="597.8"/>
      <point x="542.5" y="588"/>
      <point x="545.3" y="578.2" type="curve" smooth="yes"/>
      <point x="548.8" y="567"/>
      <point x="548.8" y="553.7"/>
      <point x="548.1" y="540.4" type="curve" smooth="yes"/>
      <point x="546.7" y="529.9"/>
      <point x="545.3" y="519.4"/>
      <point x="542.5" y="508.9" type="curve" smooth="yes"/>
      <point x="523.6" y="440.3"/>
      <point x="470.4" y="373.1"/>
      <point x="451.5" y="303.8" type="curve" smooth="yes"/>
      <point x="449.4" y="295.4" type="line" smooth="yes"/>
      <point x="437.5" y="240.1"/>
      <point x="430.5" y="185.5"/>
      <point x="422.8" y="130.2" type="curve" smooth="yes"/>
      <point x="414.4" y="74.9004"/>
      <point x="405.3" y="18.9004"/>
      <point x="397.6" y="-37.0996" type="curve" smooth="yes"/>
      <point x="392.7" y="-74.2002"/>
      <point x="387.1" y="-110.6"/>
      <point x="380.8" y="-147.7" type="curve" smooth="yes"/>
      <point x="378" y="-163.1"/>
      <point x="375.9" y="-178.5"/>
      <point x="372.4" y="-193.2" type="curve" smooth="yes"/>
      <point x="370.3" y="-199.5" type="line" smooth="yes"/>
      <point x="357" y="-242.2"/>
      <point x="328.3" y="-280"/>
      <point x="290.5" y="-310.1" type="curve" smooth="yes"/>
      <point x="266" y="-329"/>
      <point x="244.3" y="-341.6"/>
      <point x="217.7" y="-341.6" type="curve" smooth="yes"/>
      <point x="213.5" y="-341.6" type="line" smooth="yes"/>
      <point x="198.8" y="-340.9"/>
      <point x="202.3" y="-309.4"/>
      <point x="204.4" y="-297.5" type="curve" smooth="yes"/>
      <point x="205.8" y="-290.5"/>
      <point x="207.2" y="-283.5"/>
      <point x="209.3" y="-277.2" type="curve" smooth="yes"/>
      <point x="212.1" y="-264.6"/>
      <point x="216.3" y="-251.3"/>
      <point x="219.8" y="-239.4" type="curve" smooth="yes"/>
      <point x="243.6" y="-147" type="line"/>
      <point x="310.8" y="107.8" type="line"/>
      <point x="315" y="123.9" type="line" smooth="yes"/>
      <point x="337.4" y="207.9"/>
      <point x="360.5" y="291.2"/>
      <point x="402.5" y="374.5" type="curve" smooth="yes"/>
      <point x="419.3" y="407.4"/>
      <point x="439.6" y="437.5"/>
    </contour>
  </outline>
</glyph>
<glyph name="dcroat" format="2">
  <advance width="387"/>
  <unicode hex="0111"/>
  <outline>
    <contour>
      <point x="316.4" y="652.4" type="line"/>
      <point x="336" y="650.3"/>
      <point x="359.1" y="638.4"/>
      <point x="373.8" y="628.6" type="curve" smooth="yes"/>
      <point x="415.8" y="598.5"/>
      <point x="440.3" y="546"/>
      <point x="447.3" y="492.1" type="curve" smooth="yes"/>
      <point x="452.9" y="452.2"/>
      <point x="444.5" y="411.6"/>
      <point x="435.4" y="369.6" type="curve" smooth="yes"/>
      <point x="434" y="362.6"/>
      <point x="431.9" y="355.6"/>
      <point x="430.5" y="348.6" type="curve" smooth="yes"/>
      <point x="401.8" y="242.2"/>
      <point x="338.1" y="136.5"/>
      <point x="247.8" y="54.5996" type="curve" smooth="yes"/>
      <point x="232.4" y="40.5996"/>
      <point x="216.3" y="25.9004"/>
      <point x="199.5" y="15.4004" type="curve" smooth="yes"/>
      <point x="170.8" y="-3.5"/>
      <point x="136.5" y="-17.5"/>
      <point x="105" y="-28" type="curve" smooth="yes"/>
      <point x="86.7998" y="-34.2998"/>
      <point x="64.4004" y="-39.9004"/>
      <point x="44.7998" y="-39.9004" type="curve" smooth="yes"/>
      <point x="41.2998" y="-39.9004"/>
      <point x="37.0996" y="-39.2002"/>
      <point x="33.5996" y="-39.2002" type="curve"/>
      <point x="18.2002" y="-36.4004"/>
      <point x="21" y="-11.9004"/>
      <point x="23.0996" y="0" type="curve" smooth="yes"/>
      <point x="23.7998" y="5.59961"/>
      <point x="24.5" y="11.2002"/>
      <point x="26.5996" y="16.7998" type="curve" smooth="yes"/>
      <point x="32.2002" y="38.5"/>
      <point x="43.4004" y="61.5996"/>
      <point x="52.5" y="82.5996" type="curve" smooth="yes"/>
      <point x="58.7998" y="97.2998"/>
      <point x="63.7002" y="112"/>
      <point x="74.9004" y="125.3" type="curve" smooth="yes"/>
      <point x="86.7998" y="140"/>
      <point x="102.9" y="142.8"/>
      <point x="119" y="145.6" type="curve" smooth="yes"/>
      <point x="140.7" y="149.8"/>
      <point x="163.1" y="154"/>
      <point x="185.5" y="159.6" type="curve" smooth="yes"/>
      <point x="208.6" y="165.9"/>
      <point x="232.4" y="172.2"/>
      <point x="254.1" y="183.4" type="curve" smooth="yes"/>
      <point x="303.1" y="209.3"/>
      <point x="340.9" y="257.6"/>
      <point x="359.8" y="305.2" type="curve"/>
      <point x="360.5" y="308.7"/>
      <point x="361.9" y="311.5"/>
      <point x="362.6" y="315" type="curve" smooth="yes"/>
      <point x="364.7" y="322"/>
      <point x="366.1" y="329.7"/>
      <point x="366.8" y="336.7" type="curve" smooth="yes"/>
      <point x="373.8" y="405.3"/>
      <point x="319.2" y="431.9"/>
      <point x="269.5" y="457.8" type="curve" smooth="yes"/>
      <point x="254.8" y="464.8"/>
      <point x="240.8" y="472.5"/>
      <point x="227.5" y="481.6" type="curve" smooth="yes"/>
      <point x="221.9" y="485.1"/>
      <point x="214.9" y="488.6"/>
      <point x="212.8" y="494.9" type="curve" smooth="yes"/>
      <point x="209.3" y="506.1"/>
      <point x="210.7" y="518"/>
      <point x="214.2" y="531.3" type="curve" smooth="yes"/>
      <point x="218.4" y="548.1"/>
      <point x="226.8" y="565.6"/>
      <point x="231.7" y="581.7" type="curve" smooth="yes"/>
      <point x="246.4" y="629.3"/>
      <point x="258.3" y="678.3"/>
      <point x="273.7" y="725.9" type="curve" smooth="yes"/>
      <point x="279.3" y="742"/>
      <point x="286.3" y="758.1"/>
      <point x="290.5" y="774.2" type="curve" smooth="yes"/>
      <point x="292.6" y="781.9"/>
      <point x="294" y="789.6"/>
      <point x="294.7" y="796.6" type="curve" smooth="yes"/>
      <point x="296.8" y="825.3"/>
      <point x="279.3" y="845.6"/>
      <point x="263.2" y="863.8" type="curve" smooth="yes"/>
      <point x="257.6" y="870.1"/>
      <point x="239.4" y="884.1"/>
      <point x="241.5" y="895.3" type="curve" smooth="yes"/>
      <point x="242.2" y="897.4"/>
      <point x="242.9" y="900.2"/>
      <point x="243.6" y="903" type="curve" smooth="yes"/>
      <point x="249.2" y="924.7"/>
      <point x="261.8" y="948.5"/>
      <point x="273.7" y="968.1" type="curve" smooth="yes"/>
      <point x="277.2" y="974.4"/>
      <point x="281.4" y="986.3"/>
      <point x="287.7" y="990.5" type="curve" smooth="yes"/>
      <point x="297.5" y="997.5"/>
      <point x="307.3" y="1000.3"/>
      <point x="316.4" y="1000.3" type="curve" smooth="yes"/>
      <point x="339.5" y="1000.3"/>
      <point x="360.5" y="983.5"/>
      <point x="376.6" y="974.4" type="curve" smooth="yes"/>
      <point x="385.7" y="968.8"/>
      <point x="394.1" y="963.9"/>
      <point x="402.5" y="957.6" type="curve" smooth="yes"/>
      <point x="410.2" y="950.6"/>
      <point x="420.7" y="942.2"/>
      <point x="422.8" y="931" type="curve" smooth="yes"/>
      <point x="423.5" y="927.5"/>
      <point x="422.8" y="923.3"/>
      <point x="421.4" y="917.7" type="curve" smooth="yes"/>
      <point x="417.9" y="905.8"/>
      <point x="410.9" y="890.4"/>
      <point x="408.1" y="882.7" type="curve" smooth="yes"/>
      <point x="401.8" y="868"/>
      <point x="402.5" y="866.6"/>
      <point x="396.2" y="851.2" type="curve" smooth="yes"/>
    </contour>
  </outline>
</glyph>
<glyph name="emacron" format="2">
  <advance width="619"/>
  <unicode hex="0113"/>
  <outline>
    <contour>
      <point x="538.3" y="656.6" type="curve" smooth="yes"/>
      <point x="545.3" y="657.3"/>
      <point x="551.6" y="658"/>
      <point x="557.2" y="658" type="curve" smooth="yes"/>
      <point x="633.5" y="658"/>
      <point x="674.1" y="595.7"/>
      <point x="683.2" y="527.8" type="curve" smooth="yes"/>
      <point x="690.2" y="474.6"/>
      <point x="682.5" y="417.2"/>
      <point x="667.1" y="359.1" type="curve" smooth="yes"/>
      <point x="658.7" y="326.9"/>
      <point x="647.5" y="294"/>
      <point x="634.2" y="262.5" type="curve" smooth="yes"/>
      <point x="612.5" y="207.9"/>
      <point x="585.9" y="155.4"/>
      <point x="546" y="107.1" type="curve" smooth="yes"/>
      <point x="510.3" y="63.7002"/>
      <point x="466.9" y="25.2002"/>
      <point x="417.2" y="0.700195" type="curve" smooth="yes"/>
      <point x="397.6" y="-9.09961"/>
      <point x="374.5" y="-18.9004"/>
      <point x="354.2" y="-18.9004" type="curve" smooth="yes"/>
      <point x="352.1" y="-18.9004"/>
      <point x="350" y="-18.2002"/>
      <point x="347.9" y="-18.2002" type="curve" smooth="yes"/>
      <point x="336.7" y="-17.5"/>
      <point x="319.2" y="-16.7998"/>
      <point x="312.2" y="-8.40039" type="curve" smooth="yes"/>
      <point x="302.4" y="2.7998"/>
      <point x="308.7" y="25.9004"/>
      <point x="311.5" y="40.5996" type="curve" smooth="yes"/>
      <point x="312.2" y="44.7998"/>
      <point x="312.2" y="49.7002"/>
      <point x="313.6" y="53.9004" type="curve" smooth="yes"/>
      <point x="314.3" y="56.7002"/>
      <point x="315" y="58.7998"/>
      <point x="316.4" y="61.5996" type="curve" smooth="yes"/>
      <point x="319.2" y="65.7998"/>
      <point x="324.1" y="70"/>
      <point x="328.3" y="74.2002" type="curve" smooth="yes"/>
      <point x="349.3" y="91.7002"/>
      <point x="373.8" y="98.7002"/>
      <point x="398.3" y="107.1" type="curve" smooth="yes"/>
      <point x="431.9" y="118.3"/>
      <point x="463.4" y="128.8"/>
      <point x="494.2" y="151.2" type="curve" smooth="yes"/>
      <point x="546" y="187.6"/>
      <point x="576.1" y="240.8"/>
      <point x="590.1" y="294.7" type="curve" smooth="yes"/>
      <point x="591.5" y="298.2" type="line" smooth="yes"/>
      <point x="595.7" y="313.6"/>
      <point x="599.2" y="329"/>
      <point x="599.2" y="343" type="curve" smooth="yes"/>
      <point x="599.2" y="366.1"/>
      <point x="592.2" y="389.2"/>
      <point x="583.1" y="408.1" type="curve" smooth="yes"/>
      <point x="572.6" y="429.1"/>
      <point x="560.7" y="450.1"/>
      <point x="538.3" y="459.9" type="curve" smooth="yes"/>
      <point x="518.7" y="468.3"/>
      <point x="497" y="471.8"/>
      <point x="473.9" y="471.8" type="curve" smooth="yes"/>
      <point x="448.7" y="471.8"/>
      <point x="421.4" y="466.9"/>
      <point x="394.8" y="458.5" type="curve" smooth="yes"/>
      <point x="383.6" y="454.3"/>
      <point x="372.4" y="450.1"/>
      <point x="361.2" y="445.2" type="curve" smooth="yes"/>
      <point x="357.7" y="443.1"/>
      <point x="351.4" y="441"/>
      <point x="348.6" y="438.2" type="curve" smooth="yes"/>
      <point x="347.2" y="436.1"/>
      <point x="346.5" y="433.3"/>
      <point x="345.1" y="430.5" type="curve"/>
      <point x="343.7" y="423.5"/>
      <point x="343" y="413.7"/>
      <point x="341.6" y="408.1" type="curve" smooth="yes"/>
      <point x="334.6" y="381.5"/>
      <point x="327.6" y="354.9"/>
      <point x="319.2" y="328.3" type="curve" smooth="yes"/>
      <point x="296.1" y="254.8"/>
      <point x="266.7" y="178.5"/>
      <point x="224" y="107.8" type="curve" smooth="yes"/>
      <point x="201.6" y="70.7002"/>
      <point x="176.4" y="30.7998"/>
      <point x="142.8" y="0" type="curve" smooth="yes"/>
      <point x="128.8" y="-13.2998"/>
      <point x="108.5" y="-28"/>
      <point x="91" y="-31.5" type="curve" smooth="yes"/>
      <point x="87.5" y="-32.2002"/>
      <point x="84" y="-32.2002"/>
      <point x="81.2002" y="-32.2002" type="curve" smooth="yes"/>
      <point x="71.4004" y="-32.2002"/>
      <point x="62.2998" y="-30.0996"/>
      <point x="54.5996" y="-28" type="curve" smooth="yes"/>
      <point x="42.7002" y="-24.5"/>
      <point x="28.7002" y="-16.7998"/>
      <point x="25.9004" y="-4.2002" type="curve" smooth="yes"/>
      <point x="25.2002" y="2.09961"/>
      <point x="26.5996" y="9.7998"/>
      <point x="28.7002" y="16.7998" type="curve" smooth="yes"/>
      <point x="31.5" y="26.5996" type="line"/>
      <point x="32.2002" y="30.7998" type="line"/>
      <point x="34.2998" y="37.0996"/>
      <point x="36.4004" y="44.7998"/>
      <point x="41.2998" y="50.4004" type="curve" smooth="yes"/>
      <point x="53.9004" y="64.4004"/>
      <point x="73.5" y="74.9004"/>
      <point x="88.2002" y="85.4004" type="curve" smooth="yes"/>
      <point x="112" y="102.9"/>
      <point x="135.8" y="121.8"/>
      <point x="157.5" y="142.1" type="curve" smooth="yes"/>
      <point x="201.6" y="182.7"/>
      <point x="228.9" y="242.9"/>
      <point x="243.6" y="296.8" type="curve" smooth="yes"/>
      <point x="247.1" y="310.1"/>
      <point x="249.9" y="322.7"/>
      <point x="252" y="334.6" type="curve" smooth="yes"/>
      <point x="259" y="378"/>
      <point x="256.2" y="421.4"/>
      <point x="234.5" y="454.3" type="curve" smooth="yes"/>
      <point x="224.7" y="469"/>
      <point x="212.1" y="482.3"/>
      <point x="200.9" y="497" type="curve" smooth="yes"/>
      <point x="194.6" y="505.4"/>
      <point x="186.2" y="515.9"/>
      <point x="186.9" y="529.2" type="curve" smooth="yes"/>
      <point x="186.9" y="529.9"/>
      <point x="187.6" y="531.3"/>
      <point x="187.6" y="532.7" type="curve"/>
      <point x="189.7" y="539"/>
      <point x="193.9" y="546.7"/>
      <point x="197.4" y="552.3" type="curve" smooth="yes"/>
      <point x="208.6" y="574"/>
      <point x="224" y="595"/>
      <point x="241.5" y="613.2" type="curve" smooth="yes"/>
      <point x="252.7" y="625.1"/>
      <point x="266" y="639.8"/>
      <point x="279.3" y="648.2" type="curve" smooth="yes"/>
      <point x="287" y="652.4"/>
      <point x="294.7" y="654.5"/>
      <point x="301.7" y="654.5" type="curve" smooth="yes"/>
      <point x="313.6" y="654.5"/>
      <point x="324.1" y="648.2"/>
      <point x="331.1" y="640.5" type="curve" smooth="yes"/>
      <point x="352.1" y="616.7"/>
      <point x="356.3" y="583.1"/>
      <point x="359.1" y="549.5" type="curve" smooth="yes"/>
      <point x="359.8" y="534.8"/>
      <point x="359.8" y="519.4"/>
      <point x="360.5" y="504.7" type="curve" smooth="yes"/>
      <point x="360.5" y="501.2"/>
      <point x="359.1" y="492.1"/>
      <point x="363.3" y="492.1" type="curve" smooth="yes"/>
      <point x="364" y="492.1"/>
      <point x="364.7" y="492.1"/>
      <point x="365.4" y="492.8" type="curve" smooth="yes"/>
      <point x="369.6" y="494.2"/>
      <point x="373.8" y="501.2"/>
      <point x="376.6" y="504.7" type="curve" smooth="yes"/>
      <point x="406" y="540.4" type="line" smooth="yes"/>
      <point x="429.8" y="569.8"/>
      <point x="454.3" y="599.9"/>
      <point x="483" y="625.8" type="curve" smooth="yes"/>
      <point x="492.1" y="634.9"/>
      <point x="504.7" y="648.9"/>
      <point x="516.6" y="653.8" type="curve" smooth="yes"/>
      <point x="523.6" y="657.3"/>
      <point x="531.3" y="655.9"/>
    </contour>
  </outline>
</glyph>
<glyph name="Ebreve" format="2">
  <advance width="308"/>
  <unicode hex="0114"/>
  <outline>
    <contour>
      <point x="299.6" y="436.8" type="curve"/>
      <point x="284.9" y="443.8"/>
      <point x="270.2" y="452.9"/>
      <point x="255.5" y="461.3" type="curve" smooth="yes"/>
      <point x="230.3" y="474.6"/>
      <point x="199.5" y="489.3"/>
      <point x="191.1" y="519.4" type="curve" smooth="yes"/>
      <point x="186.2" y="535.5"/>
      <point x="189.7" y="550.9"/>
      <point x="193.2" y="568.4" type="curve" smooth="yes"/>
      <point x="194.6" y="575.4"/>
      <point x="196" y="581.7"/>
      <point x="198.1" y="588.7" type="curve" smooth="yes"/>
      <point x="204.4" y="613.9"/>
      <point x="214.2" y="639.1"/>
      <point x="226.8" y="662.9" type="curve" smooth="yes"/>
      <point x="232.4" y="674.1"/>
      <point x="238.7" y="684.6"/>
      <point x="245.7" y="695.1" type="curve" smooth="yes"/>
      <point x="248.5" y="698.6"/>
      <point x="251.3" y="704.2"/>
      <point x="254.8" y="707" type="curve"/>
      <point x="259" y="709.1"/>
      <point x="264.6" y="708.4"/>
      <point x="268.8" y="709.1" type="curve" smooth="yes"/>
      <point x="280" y="710.5"/>
      <point x="290.5" y="711.9"/>
      <point x="301.7" y="711.9" type="curve"/>
      <point x="294.7" y="659.4"/>
      <point x="354.2" y="641.2"/>
      <point x="380.1" y="610.4" type="curve" smooth="yes"/>
      <point x="388.5" y="601.3"/>
      <point x="398.3" y="588"/>
      <point x="398.3" y="573.3" type="curve" smooth="yes"/>
      <point x="397.6" y="560.7"/>
      <point x="395.5" y="546.7"/>
      <point x="391.3" y="532.7" type="curve" smooth="yes"/>
      <point x="383.6" y="504"/>
      <point x="371" y="474.6"/>
      <point x="359.1" y="448" type="curve" smooth="yes"/>
      <point x="329" y="382.2"/>
      <point x="291.9" y="315.7"/>
      <point x="270.9" y="249.2" type="curve" smooth="yes"/>
      <point x="269.5" y="243.6"/>
      <point x="268.1" y="238.7"/>
      <point x="266.7" y="233.8" type="curve" smooth="yes"/>
      <point x="261.8" y="215.6"/>
      <point x="258.3" y="197.4"/>
      <point x="256.2" y="179.9" type="curve" smooth="yes"/>
      <point x="254.8" y="165.2"/>
      <point x="255.5" y="151.9"/>
      <point x="253.4" y="137.2" type="curve" smooth="yes"/>
      <point x="241.5" y="63.7002"/>
      <point x="231.7" y="-9.09961"/>
      <point x="219.8" y="-82.5996" type="curve" smooth="yes"/>
      <point x="214.2" y="-117.6"/>
      <point x="212.1" y="-152.6"/>
      <point x="204.4" y="-187.6" type="curve"/>
      <point x="203.7" y="-189"/>
      <point x="203.7" y="-191.1"/>
      <point x="203" y="-192.5" type="curve" smooth="yes"/>
      <point x="192.5" y="-233.1"/>
      <point x="158.9" y="-271.6"/>
      <point x="123.9" y="-299.6" type="curve" smooth="yes"/>
      <point x="112.7" y="-308.7"/>
      <point x="99.4004" y="-319.2"/>
      <point x="86.0996" y="-324.8" type="curve" smooth="yes"/>
      <point x="74.2002" y="-330.4"/>
      <point x="59.5" y="-331.8"/>
      <point x="48.2998" y="-331.8" type="curve" smooth="yes"/>
      <point x="44.0996" y="-331.8" type="line" smooth="yes"/>
      <point x="40.5996" y="-331.8"/>
      <point x="37.7998" y="-331.1"/>
      <point x="35.7002" y="-328.3" type="curve" smooth="yes"/>
      <point x="30.0996" y="-319.2"/>
      <point x="34.2998" y="-301"/>
      <point x="37.7998" y="-286.3" type="curve" smooth="yes"/>
      <point x="41.2998" y="-275.1" type="line"/>
      <point x="74.9004" y="-145.6" type="line"/>
      <point x="144.2" y="113.4" type="line"/>
      <point x="163.1" y="189" type="line" smooth="yes"/>
      <point x="170.8" y="217"/>
      <point x="179.2" y="244.3"/>
      <point x="191.8" y="272.3" type="curve" smooth="yes"/>
      <point x="219.1" y="331.1"/>
      <point x="266" y="380.8"/>
    </contour>
  </outline>
</glyph>
<glyph name="ebreve" format="2">
  <advance width="347"/>
  <unicode hex="0115"/>
  <outline>
    <contour>
      <point x="333.9" y="651.7" type="curve" smooth="yes"/>
      <point x="336" y="651.7" type="line" smooth="yes"/>
      <point x="350.7" y="651.7"/>
      <point x="366.1" y="637"/>
      <point x="375.9" y="629.3" type="curve" smooth="yes"/>
      <point x="420" y="592.9"/>
      <point x="424.9" y="536.2"/>
      <point x="416.5" y="474.6" type="curve" smooth="yes"/>
      <point x="412.3" y="438.2"/>
      <point x="405.3" y="401.1"/>
      <point x="394.8" y="363.3" type="curve" smooth="yes"/>
      <point x="364.7" y="249.2"/>
      <point x="306.6" y="133.7"/>
      <point x="206.5" y="47.5996" type="curve" smooth="yes"/>
      <point x="165.2" y="11.9004"/>
      <point x="110.6" y="-24.5"/>
      <point x="60.2002" y="-32.9004" type="curve" smooth="yes"/>
      <point x="51.7998" y="-34.2998"/>
      <point x="42" y="-37.7998"/>
      <point x="33.5996" y="-37.7998" type="curve" smooth="yes"/>
      <point x="30.7998" y="-37.7998" type="line" smooth="yes"/>
      <point x="12.5996" y="-35.7002"/>
      <point x="15.4004" y="-13.2998"/>
      <point x="18.2002" y="2.09961" type="curve" smooth="yes"/>
      <point x="18.9004" y="6.2998"/>
      <point x="19.5996" y="10.5"/>
      <point x="21" y="14.7002" type="curve" smooth="yes"/>
      <point x="27.2998" y="39.2002"/>
      <point x="39.9004" y="63.7002"/>
      <point x="49" y="88.2002" type="curve" smooth="yes"/>
      <point x="53.9004" y="102.9"/>
      <point x="60.9004" y="122.5"/>
      <point x="72.0996" y="135.1" type="curve" smooth="yes"/>
      <point x="80.5" y="143.5"/>
      <point x="91" y="144.9"/>
      <point x="100.8" y="147" type="curve" smooth="yes"/>
      <point x="120.4" y="152.6"/>
      <point x="140.7" y="157.5"/>
      <point x="161" y="164.5" type="curve" smooth="yes"/>
      <point x="203" y="178.5"/>
      <point x="247.8" y="196.7"/>
      <point x="280" y="232.4" type="curve" smooth="yes"/>
      <point x="294" y="247.8"/>
      <point x="303.8" y="265.3"/>
      <point x="312.9" y="282.8" type="curve" smooth="yes"/>
      <point x="321.3" y="298.2"/>
      <point x="327.6" y="314.3"/>
      <point x="331.8" y="330.4" type="curve" smooth="yes"/>
      <point x="339.5" y="357.7"/>
      <point x="340.2" y="385"/>
      <point x="329.7" y="406.7" type="curve" smooth="yes"/>
      <point x="320.6" y="426.3"/>
      <point x="303.8" y="440.3"/>
      <point x="283.5" y="449.4" type="curve" smooth="yes"/>
      <point x="261.1" y="460.6"/>
      <point x="236.6" y="469.7"/>
      <point x="214.9" y="482.3" type="curve" smooth="yes"/>
      <point x="207.9" y="486.5"/>
      <point x="195.3" y="490.7"/>
      <point x="191.8" y="499.1" type="curve" smooth="yes"/>
      <point x="189.7" y="505.4"/>
      <point x="191.1" y="515.2"/>
      <point x="192.5" y="522.9" type="curve" smooth="yes"/>
      <point x="193.2" y="525.7"/>
      <point x="193.2" y="528.5"/>
      <point x="194.6" y="532" type="curve" smooth="yes"/>
      <point x="202.3" y="561.4"/>
      <point x="228.2" y="592.2"/>
      <point x="251.3" y="615.3" type="curve" smooth="yes"/>
      <point x="259.7" y="624.4"/>
      <point x="269.5" y="637"/>
      <point x="280" y="643.3" type="curve" smooth="yes"/>
      <point x="297.5" y="652.4"/>
      <point x="317.1" y="650.3"/>
    </contour>
  </outline>
</glyph>
<glyph name="edotaccent" format="2">
  <advance width="580"/>
  <unicode hex="0117"/>
  <outline>
    <contour>
      <point x="270.9" y="142.8" type="curve"/>
      <point x="293.3" y="144.2"/>
      <point x="317.1" y="148.4"/>
      <point x="340.2" y="151.9" type="curve" smooth="yes"/>
      <point x="379.4" y="158.9"/>
      <point x="421.4" y="166.6"/>
      <point x="459.2" y="188.3" type="curve" smooth="yes"/>
      <point x="510.3" y="218.4"/>
      <point x="557.2" y="280"/>
      <point x="572.6" y="338.1" type="curve" smooth="yes"/>
      <point x="580.3" y="366.1"/>
      <point x="580.3" y="394.1"/>
      <point x="569.1" y="415.8" type="curve" smooth="yes"/>
      <point x="553.7" y="448.7"/>
      <point x="519.4" y="457.1"/>
      <point x="484.4" y="466.2" type="curve" smooth="yes"/>
      <point x="471.1" y="469.7"/>
      <point x="457.8" y="473.9"/>
      <point x="445.9" y="480.2" type="curve" smooth="yes"/>
      <point x="441.7" y="483"/>
      <point x="436.1" y="485.1"/>
      <point x="434" y="490" type="curve" smooth="yes"/>
      <point x="432.6" y="494.2"/>
      <point x="432.6" y="498.4"/>
      <point x="434" y="503.3" type="curve" smooth="yes"/>
      <point x="437.5" y="515.2"/>
      <point x="446.6" y="527.8"/>
      <point x="452.9" y="537.6" type="curve" smooth="yes"/>
      <point x="473.2" y="570.5"/>
      <point x="492.1" y="607.6"/>
      <point x="522.2" y="634.9" type="curve" smooth="yes"/>
      <point x="533.4" y="646.1"/>
      <point x="546" y="658"/>
      <point x="561.4" y="658.7" type="curve" smooth="yes"/>
      <point x="563.5" y="658.7" type="line" smooth="yes"/>
      <point x="581" y="658.7"/>
      <point x="590.8" y="644.7"/>
      <point x="602" y="634.9" type="curve" smooth="yes"/>
      <point x="641.9" y="602"/>
      <point x="656.6" y="543.2"/>
      <point x="655.2" y="487.2" type="curve" smooth="yes"/>
      <point x="654.5" y="452.2"/>
      <point x="648.9" y="417.9"/>
      <point x="639.1" y="382.2" type="curve" smooth="yes"/>
      <point x="603.4" y="247.8"/>
      <point x="508.2" y="95.9004"/>
      <point x="365.4" y="28.7002" type="curve" smooth="yes"/>
      <point x="280" y="-11.9004"/>
      <point x="186.9" y="-32.9004"/>
      <point x="102.2" y="-32.9004" type="curve" smooth="yes"/>
      <point x="82.5996" y="-32.9004"/>
      <point x="63.7002" y="-32.9004"/>
      <point x="44.7998" y="-31.5" type="curve" smooth="yes"/>
      <point x="38.5" y="-30.7998"/>
      <point x="28" y="-32.2002"/>
      <point x="25.2002" y="-26.5996" type="curve" smooth="yes"/>
      <point x="18.2002" y="-11.9004"/>
      <point x="18.9004" y="5.59961"/>
      <point x="23.7998" y="23.7998" type="curve" smooth="yes"/>
      <point x="30.0996" y="47.5996"/>
      <point x="43.4004" y="72.0996"/>
      <point x="53.2002" y="92.4004" type="curve" smooth="yes"/>
      <point x="59.5" y="104.3"/>
      <point x="65.7998" y="126"/>
      <point x="79.7998" y="132.3" type="curve" smooth="yes"/>
      <point x="82.5996" y="133"/>
      <point x="85.4004" y="133.7"/>
      <point x="88.9004" y="133.7" type="curve" smooth="yes"/>
      <point x="94.5" y="133.7"/>
      <point x="101.5" y="132.3"/>
      <point x="106.4" y="132.3" type="curve" smooth="yes"/>
      <point x="153.3" y="132.3" type="line"/>
      <point x="176.4" y="132.3" type="line"/>
      <point x="179.2" y="132.3" type="line" smooth="yes"/>
      <point x="188.3" y="132.3"/>
      <point x="205.8" y="132.3"/>
      <point x="212.1" y="138.6" type="curve" smooth="yes"/>
      <point x="215.6" y="141.4"/>
      <point x="217.7" y="148.4"/>
      <point x="219.1" y="154.7" type="curve" smooth="yes"/>
      <point x="220.5" y="158.2"/>
      <point x="221.2" y="162.4"/>
      <point x="221.9" y="165.2" type="curve"/>
      <point x="222.6" y="165.9"/>
      <point x="222.6" y="166.6"/>
      <point x="222.6" y="167.3" type="curve" smooth="yes"/>
      <point x="226.8" y="182" type="line" smooth="yes"/>
      <point x="236.6" y="217"/>
      <point x="240.8" y="251.3"/>
      <point x="247.8" y="285.6" type="curve" smooth="yes"/>
      <point x="254.8" y="322"/>
      <point x="261.1" y="357"/>
      <point x="263.9" y="392.7" type="curve" smooth="yes"/>
      <point x="264.6" y="407.4"/>
      <point x="266.7" y="423.5"/>
      <point x="264.6" y="437.5" type="curve" smooth="yes"/>
      <point x="263.2" y="447.3"/>
      <point x="251.3" y="455"/>
      <point x="245" y="462" type="curve" smooth="yes"/>
      <point x="228.9" y="478.8"/>
      <point x="210" y="498.4"/>
      <point x="217" y="527.8" type="curve"/>
      <point x="217.7" y="529.2" type="line"/>
      <point x="221.2" y="541.8"/>
      <point x="228.2" y="554.4"/>
      <point x="234.5" y="567" type="curve" smooth="yes"/>
      <point x="245.7" y="588"/>
      <point x="256.2" y="609.7"/>
      <point x="271.6" y="629.3" type="curve" smooth="yes"/>
      <point x="278.6" y="638.4"/>
      <point x="289.1" y="651.7"/>
      <point x="299.6" y="657.3" type="curve" smooth="yes"/>
      <point x="302.4" y="658.7"/>
      <point x="305.2" y="659.4"/>
      <point x="308.7" y="659.4" type="curve" smooth="yes"/>
      <point x="317.8" y="659.4"/>
      <point x="328.3" y="655.9"/>
      <point x="333.9" y="653.8" type="curve" smooth="yes"/>
      <point x="343" y="650.3"/>
      <point x="349.3" y="643.3"/>
      <point x="356.3" y="637.7" type="curve" smooth="yes"/>
      <point x="373.1" y="623"/>
      <point x="394.1" y="604.8"/>
      <point x="395.5" y="579.6" type="curve" smooth="yes"/>
      <point x="395.5" y="574.7"/>
      <point x="394.8" y="570.5"/>
      <point x="393.4" y="565.6" type="curve" smooth="yes"/>
      <point x="390.6" y="554.4"/>
      <point x="384.3" y="543.2"/>
      <point x="379.4" y="532" type="curve" smooth="yes"/>
      <point x="368.2" y="501.9"/>
      <point x="357" y="472.5"/>
      <point x="347.2" y="442.4" type="curve" smooth="yes"/>
      <point x="333.9" y="403.9"/>
      <point x="322.7" y="364.7"/>
      <point x="312.2" y="326.2" type="curve" smooth="yes"/>
      <point x="295.4" y="264.6"/>
      <point x="282.1" y="203.7"/>
    </contour>
  </outline>
</glyph>
<glyph name="Eogonek" format="2">
  <advance width="541"/>
  <unicode hex="0118"/>
  <outline>
    <contour>
      <point x="403.9" y="639.1" type="curve" smooth="yes"/>
      <point x="407.4" y="639.8"/>
      <point x="411.6" y="639.8"/>
      <point x="415.1" y="639.8" type="curve" smooth="yes"/>
      <point x="429.8" y="639.8"/>
      <point x="444.5" y="637"/>
      <point x="457.1" y="634.9" type="curve" smooth="yes"/>
      <point x="511" y="625.8"/>
      <point x="557.9" y="602"/>
      <point x="592.9" y="566.3" type="curve" smooth="yes"/>
      <point x="604.8" y="554.4"/>
      <point x="614.6" y="542.5"/>
      <point x="621.6" y="527.8" type="curve" smooth="yes"/>
      <point x="624.4" y="523.6"/>
      <point x="628.6" y="518"/>
      <point x="629.3" y="512.4" type="curve" smooth="yes"/>
      <point x="629.3" y="511"/>
      <point x="628.6" y="508.9"/>
      <point x="628.6" y="506.8" type="curve"/>
      <point x="627.2" y="502.6"/>
      <point x="624.4" y="497.7"/>
      <point x="623" y="494.2" type="curve" smooth="yes"/>
      <point x="616.7" y="474.6"/>
      <point x="606.9" y="455.7"/>
      <point x="597.1" y="437.5" type="curve" smooth="yes"/>
      <point x="565.6" y="378"/>
      <point x="529.9" y="322"/>
      <point x="505.4" y="260.4" type="curve" smooth="yes"/>
      <point x="497" y="238.7"/>
      <point x="490" y="217"/>
      <point x="484.4" y="196" type="curve" smooth="yes"/>
      <point x="472.5" y="151.2"/>
      <point x="465.5" y="107.1"/>
      <point x="459.2" y="61.5996" type="curve" smooth="yes"/>
      <point x="450.1" y="-4.90039"/>
      <point x="443.1" y="-70.7002"/>
      <point x="432.6" y="-137.2" type="curve" smooth="yes"/>
      <point x="429.1" y="-158.9"/>
      <point x="424.9" y="-180.6"/>
      <point x="420" y="-202.3" type="curve" smooth="yes"/>
      <point x="418.6" y="-209.3"/>
      <point x="417.9" y="-216.3"/>
      <point x="415.8" y="-223.3" type="curve" smooth="yes"/>
      <point x="415.1" y="-226.1"/>
      <point x="414.4" y="-229.6"/>
      <point x="413" y="-232.4" type="curve" smooth="yes"/>
      <point x="396.9" y="-267.4"/>
      <point x="364.7" y="-296.1"/>
      <point x="331.8" y="-317.1" type="curve" smooth="yes"/>
      <point x="317.8" y="-326.2"/>
      <point x="293.3" y="-344.4"/>
      <point x="277.9" y="-345.1" type="curve" smooth="yes"/>
      <point x="275.8" y="-345.1" type="line" smooth="yes"/>
      <point x="255.5" y="-345.1"/>
      <point x="249.9" y="-326.9"/>
      <point x="252.7" y="-308" type="curve" smooth="yes"/>
      <point x="253.4" y="-305.2"/>
      <point x="254.1" y="-302.4"/>
      <point x="254.8" y="-298.9" type="curve" smooth="yes"/>
      <point x="257.6" y="-289.8"/>
      <point x="261.8" y="-280"/>
      <point x="263.9" y="-270.2" type="curve" smooth="yes"/>
      <point x="292.6" y="-168" type="line" smooth="yes"/>
      <point x="310.8" y="-99.4004"/>
      <point x="332.5" y="-30.0996"/>
      <point x="350.7" y="39.2002" type="curve" smooth="yes"/>
      <point x="364" y="88.2002" type="line" smooth="yes"/>
      <point x="377.3" y="138.6"/>
      <point x="392.7" y="189.7"/>
      <point x="419.3" y="238" type="curve" smooth="yes"/>
      <point x="435.4" y="268.8"/>
      <point x="453.6" y="298.2"/>
      <point x="473.2" y="327.6" type="curve" smooth="yes"/>
      <point x="480.2" y="338.8"/>
      <point x="496.3" y="356.3"/>
      <point x="499.8" y="368.2" type="curve"/>
      <point x="499.8" y="369.6" type="line"/>
      <point x="504" y="389.9"/>
      <point x="488.6" y="408.8"/>
      <point x="477.4" y="420.7" type="curve" smooth="yes"/>
      <point x="442.4" y="457.8"/>
      <point x="399.7" y="482.3"/>
      <point x="343" y="489.3" type="curve" smooth="yes"/>
      <point x="333.2" y="490"/>
      <point x="320.6" y="492.8"/>
      <point x="308.7" y="492.8" type="curve" smooth="yes"/>
      <point x="303.8" y="492.8"/>
      <point x="298.9" y="492.8"/>
      <point x="294" y="491.4" type="curve" smooth="yes"/>
      <point x="277.9" y="485.8"/>
      <point x="256.9" y="466.9"/>
      <point x="244.3" y="455" type="curve" smooth="yes"/>
      <point x="226.8" y="437.5"/>
      <point x="215.6" y="417.2"/>
      <point x="210" y="396.2" type="curve" smooth="yes"/>
      <point x="203.7" y="373.1"/>
      <point x="204.4" y="348.6"/>
      <point x="211.4" y="328.3" type="curve" smooth="yes"/>
      <point x="219.1" y="308"/>
      <point x="233.1" y="290.5"/>
      <point x="247.8" y="275.8" type="curve" smooth="yes"/>
      <point x="262.5" y="260.4"/>
      <point x="285.6" y="249.9"/>
      <point x="295.4" y="230.3" type="curve" smooth="yes"/>
      <point x="305.2" y="211.4"/>
      <point x="300.3" y="190.4"/>
      <point x="296.8" y="167.3" type="curve" smooth="yes"/>
      <point x="296.1" y="161"/>
      <point x="295.4" y="152.6"/>
      <point x="293.3" y="144.9" type="curve" smooth="yes"/>
      <point x="292.6" y="142.1"/>
      <point x="291.9" y="140"/>
      <point x="291.2" y="137.9" type="curve"/>
      <point x="288.4" y="133.7"/>
      <point x="282.8" y="130.9"/>
      <point x="278.6" y="128.8" type="curve" smooth="yes"/>
      <point x="266" y="122.5"/>
      <point x="252.7" y="117.6"/>
      <point x="240.1" y="114.8" type="curve" smooth="yes"/>
      <point x="229.6" y="112.7"/>
      <point x="220.5" y="112"/>
      <point x="211.4" y="112" type="curve" smooth="yes"/>
      <point x="171.5" y="112"/>
      <point x="138.6" y="130.2"/>
      <point x="122.5" y="163.1" type="curve" smooth="yes"/>
      <point x="104.3" y="201.6"/>
      <point x="108.5" y="252"/>
      <point x="119" y="298.2" type="curve" smooth="yes"/>
      <point x="120.4" y="305.2"/>
      <point x="121.8" y="312.2"/>
      <point x="123.9" y="319.2" type="curve" smooth="yes"/>
      <point x="144.9" y="398.3"/>
      <point x="185.5" y="471.8"/>
      <point x="246.4" y="539.7" type="curve" smooth="yes"/>
      <point x="278.6" y="575.4"/>
      <point x="317.8" y="605.5"/>
      <point x="360.5" y="624.4" type="curve" smooth="yes"/>
      <point x="373.8" y="630"/>
      <point x="389.9" y="637.7"/>
    </contour>
  </outline>
</glyph>
<glyph name="ecaron" format="2">
  <advance width="387"/>
  <unicode hex="011B"/>
  <outline>
    <contour>
      <point x="324.1" y="625.1" type="curve"/>
      <point x="343.7" y="622.3"/>
      <point x="367.5" y="621.6"/>
      <point x="384.3" y="613.2" type="curve" smooth="yes"/>
      <point x="448.7" y="580.3"/>
      <point x="455.7" y="501.9"/>
      <point x="445.9" y="427.7" type="curve" smooth="yes"/>
      <point x="442.4" y="400.4"/>
      <point x="437.5" y="372.4"/>
      <point x="429.8" y="344.4" type="curve" smooth="yes"/>
      <point x="404.6" y="250.6"/>
      <point x="357" y="156.8"/>
      <point x="283.5" y="78.4004" type="curve" smooth="yes"/>
      <point x="242.9" y="35.7002"/>
      <point x="184.8" y="-7.7002"/>
      <point x="130.2" y="-25.2002" type="curve" smooth="yes"/>
      <point x="115.5" y="-30.0996"/>
      <point x="99.4004" y="-31.5"/>
      <point x="84.7002" y="-32.9004" type="curve" smooth="yes"/>
      <point x="73.5" y="-34.2998"/>
      <point x="61.5996" y="-36.4004"/>
      <point x="50.4004" y="-36.4004" type="curve" smooth="yes"/>
      <point x="46.9004" y="-36.4004"/>
      <point x="44.0996" y="-36.4004"/>
      <point x="40.5996" y="-35.7002" type="curve" smooth="yes"/>
      <point x="28" y="-33.5996"/>
      <point x="30.0996" y="-7"/>
      <point x="31.5" y="4.2002" type="curve" smooth="yes"/>
      <point x="32.2002" y="10.5"/>
      <point x="33.5996" y="16.7998"/>
      <point x="35.7002" y="23.7998" type="curve" smooth="yes"/>
      <point x="38.5" y="35"/>
      <point x="42.7002" y="46.2002"/>
      <point x="46.2002" y="57.4004" type="curve" smooth="yes"/>
      <point x="54.5996" y="82.5996"/>
      <point x="61.5996" y="109.2"/>
      <point x="82.5996" y="131.6" type="curve" smooth="yes"/>
      <point x="93.7998" y="142.1"/>
      <point x="105" y="143.5"/>
      <point x="118.3" y="147" type="curve" smooth="yes"/>
      <point x="135.8" y="150.5"/>
      <point x="154" y="154.7"/>
      <point x="172.2" y="159.6" type="curve" smooth="yes"/>
      <point x="235.9" y="176.4"/>
      <point x="298.2" y="198.8"/>
      <point x="339.5" y="260.4" type="curve" smooth="yes"/>
      <point x="352.8" y="280"/>
      <point x="362.6" y="301.7"/>
      <point x="368.2" y="323.4" type="curve" smooth="yes"/>
      <point x="382.2" y="375.9"/>
      <point x="372.4" y="428.4"/>
      <point x="326.2" y="448" type="curve" smooth="yes"/>
      <point x="301.7" y="457.8"/>
      <point x="274.4" y="462.7"/>
      <point x="248.5" y="469.7" type="curve" smooth="yes"/>
      <point x="236.6" y="472.5"/>
      <point x="219.1" y="476"/>
      <point x="212.1" y="485.1" type="curve" smooth="yes"/>
      <point x="206.5" y="491.4"/>
      <point x="206.5" y="506.1"/>
      <point x="206.5" y="515.2" type="curve" smooth="yes"/>
      <point x="206.5" y="529.9"/>
      <point x="208.6" y="546"/>
      <point x="213.5" y="562.1" type="curve" smooth="yes"/>
      <point x="217" y="575.4"/>
      <point x="221.9" y="588"/>
      <point x="228.2" y="600.6" type="curve" smooth="yes"/>
      <point x="244.3" y="633.5"/>
      <point x="268.8" y="653.1"/>
      <point x="296.1" y="678.3" type="curve" smooth="yes"/>
      <point x="317.8" y="698.6"/>
      <point x="338.1" y="720.3"/>
      <point x="356.3" y="742.7" type="curve" smooth="yes"/>
      <point x="378" y="770"/>
      <point x="394.8" y="802.2"/>
      <point x="427.7" y="817.6" type="curve" smooth="yes"/>
      <point x="446.6" y="826"/>
      <point x="468.3" y="830.2"/>
      <point x="488.6" y="830.2" type="curve" smooth="yes"/>
      <point x="504" y="830.2"/>
      <point x="518.7" y="827.4"/>
      <point x="530.6" y="821.8" type="curve" smooth="yes"/>
      <point x="546" y="813.4"/>
      <point x="555.1" y="798.7"/>
      <point x="550.2" y="779.8" type="curve" smooth="yes"/>
      <point x="548.8" y="775.6"/>
      <point x="547.4" y="771.4"/>
      <point x="544.6" y="767.2" type="curve" smooth="yes"/>
      <point x="532" y="746.2"/>
      <point x="508.2" y="734.3"/>
      <point x="487.9" y="721.7" type="curve" smooth="yes"/>
      <point x="444.5" y="694.4"/>
      <point x="396.2" y="684.6"/>
      <point x="354.2" y="653.8" type="curve" smooth="yes"/>
      <point x="342.3" y="645.4"/>
      <point x="333.9" y="635.6"/>
    </contour>
  </outline>
</glyph>
<glyph name="gcircumflex" format="2">
  <advance width="501"/>
  <unicode hex="011D"/>
  <outline>
    <contour>
      <point x="219.1" y="697.2" type="curve"/>
      <point x="239.4" y="697.2" type="line"/>
      <point x="249.9" y="697.2" type="line" smooth="yes"/>
      <point x="252" y="697.2"/>
      <point x="255.5" y="697.9"/>
      <point x="258.3" y="697.9" type="curve" smooth="yes"/>
      <point x="259.7" y="697.9"/>
      <point x="261.1" y="697.9"/>
      <point x="261.8" y="697.2" type="curve" smooth="yes"/>
      <point x="266" y="693.7"/>
      <point x="263.2" y="681.1"/>
      <point x="263.2" y="675.5" type="curve" smooth="yes"/>
      <point x="263.9" y="658"/>
      <point x="268.1" y="644.7"/>
      <point x="286.3" y="639.8" type="curve" smooth="yes"/>
      <point x="304.5" y="634.9"/>
      <point x="324.1" y="633.5"/>
      <point x="345.1" y="633.5" type="curve" smooth="yes"/>
      <point x="371.7" y="633.5"/>
      <point x="399" y="635.6"/>
      <point x="425.6" y="635.6" type="curve" smooth="yes"/>
      <point x="457.1" y="635.6"/>
      <point x="487.2" y="632.1"/>
      <point x="512.4" y="617.4" type="curve" smooth="yes"/>
      <point x="549.5" y="595"/>
      <point x="559.3" y="541.8"/>
      <point x="562.8" y="497.7" type="curve" smooth="yes"/>
      <point x="565.6" y="448"/>
      <point x="558.6" y="394.1"/>
      <point x="544.6" y="339.5" type="curve" smooth="yes"/>
      <point x="526.4" y="273"/>
      <point x="497" y="205.8"/>
      <point x="460.6" y="144.9" type="curve" smooth="yes"/>
      <point x="436.8" y="105.7"/>
      <point x="411.6" y="67.9004"/>
      <point x="379.4" y="34.2998" type="curve" smooth="yes"/>
      <point x="362.6" y="16.0996"/>
      <point x="345.8" y="-0.700195"/>
      <point x="323.4" y="-11.2002" type="curve" smooth="yes"/>
      <point x="308" y="-18.9004"/>
      <point x="288.4" y="-25.2002"/>
      <point x="271.6" y="-25.2002" type="curve" smooth="yes"/>
      <point x="256.9" y="-25.2002"/>
      <point x="244.3" y="-20.2998"/>
      <point x="238.7" y="-7" type="curve" smooth="yes"/>
      <point x="235.2" y="2.09961"/>
      <point x="234.5" y="12.5996"/>
      <point x="237.3" y="23.7998" type="curve" smooth="yes"/>
      <point x="240.8" y="35"/>
      <point x="247.1" y="46.2002"/>
      <point x="256.9" y="55.2998" type="curve" smooth="yes"/>
      <point x="268.8" y="67.2002"/>
      <point x="284.9" y="76.2998"/>
      <point x="298.2" y="86.7998" type="curve" smooth="yes"/>
      <point x="311.5" y="96.5996"/>
      <point x="324.1" y="107.8"/>
      <point x="336" y="118.3" type="curve" smooth="yes"/>
      <point x="405.3" y="180.6"/>
      <point x="463.4" y="249.2"/>
      <point x="485.8" y="332.5" type="curve" smooth="yes"/>
      <point x="496.3" y="372.4"/>
      <point x="498.4" y="410.9"/>
      <point x="475.3" y="438.2" type="curve" smooth="yes"/>
      <point x="459.2" y="457.1"/>
      <point x="431.2" y="465.5"/>
      <point x="404.6" y="468.3" type="curve" smooth="yes"/>
      <point x="388.5" y="470.4"/>
      <point x="372.4" y="471.1"/>
      <point x="356.3" y="471.1" type="curve" smooth="yes"/>
      <point x="323.4" y="471.1"/>
      <point x="289.8" y="468.3"/>
      <point x="256.9" y="468.3" type="curve" smooth="yes"/>
      <point x="217.7" y="468.3"/>
      <point x="171.5" y="471.8"/>
      <point x="164.5" y="514.5" type="curve" smooth="yes"/>
      <point x="163.8" y="521.5"/>
      <point x="165.9" y="530.6"/>
      <point x="167.3" y="538.3" type="curve" smooth="yes"/>
      <point x="169.4" y="550.9"/>
      <point x="172.2" y="563.5"/>
      <point x="175.7" y="576.1" type="curve" smooth="yes"/>
      <point x="182.7" y="602.7" type="line" smooth="yes"/>
      <point x="191.1" y="634.2"/>
      <point x="206.5" y="665.7"/>
    </contour>
  </outline>
</glyph>
<glyph name="Gcommaaccent" format="2">
  <advance width="580"/>
  <unicode hex="0122"/>
  <outline>
    <contour>
      <point x="281.4" y="688.1" type="line"/>
      <point x="282.1" y="687.4" type="line"/>
    </contour>
    <contour>
      <point x="237.3" y="681.8" type="curve"/>
      <point x="281.4" y="687.4" type="line"/>
      <point x="279.3" y="682.5"/>
      <point x="276.5" y="677.6"/>
      <point x="275.8" y="672.7" type="curve" smooth="yes"/>
      <point x="275.1" y="664.3"/>
      <point x="274.4" y="651.7"/>
      <point x="277.2" y="644.7" type="curve" smooth="yes"/>
      <point x="290.5" y="611.8"/>
      <point x="336.7" y="604.1"/>
      <point x="364" y="586.6" type="curve" smooth="yes"/>
      <point x="384.3" y="573.3"/>
      <point x="399" y="551.6"/>
      <point x="396.9" y="524.3" type="curve" smooth="yes"/>
      <point x="395.5" y="511"/>
      <point x="390.6" y="497.7"/>
      <point x="386.4" y="484.4" type="curve" smooth="yes"/>
      <point x="361.9" y="412.3"/>
      <point x="315.7" y="343"/>
      <point x="255.5" y="287" type="curve" smooth="yes"/>
      <point x="242.9" y="274.4"/>
      <point x="228.9" y="262.5"/>
      <point x="214.9" y="252" type="curve" smooth="yes"/>
      <point x="206.5" y="245"/>
      <point x="197.4" y="238.7"/>
      <point x="188.3" y="242.9" type="curve" smooth="yes"/>
      <point x="183.4" y="245"/>
      <point x="180.6" y="252.7"/>
      <point x="177.8" y="256.9" type="curve" smooth="yes"/>
      <point x="175" y="260.4"/>
      <point x="170.1" y="265.3"/>
      <point x="170.1" y="270.2" type="curve"/>
      <point x="169.4" y="275.1"/>
      <point x="177.1" y="279.3"/>
      <point x="180.6" y="282.1" type="curve" smooth="yes"/>
      <point x="191.8" y="290.5"/>
      <point x="202.3" y="300.3"/>
      <point x="212.8" y="310.1" type="curve" smooth="yes"/>
      <point x="244.3" y="338.8"/>
      <point x="288.4" y="383.6"/>
      <point x="282.8" y="424.2" type="curve" smooth="yes"/>
      <point x="282.1" y="434"/>
      <point x="262.5" y="441"/>
      <point x="254.8" y="445.2" type="curve" smooth="yes"/>
      <point x="228.2" y="457.8"/>
      <point x="198.1" y="467.6"/>
      <point x="178.5" y="488.6" type="curve" smooth="yes"/>
      <point x="142.8" y="526.4"/>
      <point x="182" y="598.5"/>
      <point x="212.8" y="645.4" type="curve" smooth="yes"/>
      <point x="220.5" y="657.3"/>
      <point x="230.3" y="669.2"/>
    </contour>
    <contour>
      <point x="438.9" y="-16.7998" type="curve"/>
      <point x="473.2" y="110.6"/>
      <point x="531.3" y="242.2"/>
      <point x="517.3" y="364.7" type="curve" smooth="yes"/>
      <point x="513.1" y="401.8"/>
      <point x="497" y="434.7"/>
      <point x="472.5" y="459.9" type="curve" smooth="yes"/>
      <point x="456.4" y="475.3"/>
      <point x="425.6" y="485.1"/>
      <point x="431.9" y="513.1" type="curve" smooth="yes"/>
      <point x="438.9" y="550.2"/>
      <point x="470.4" y="591.5"/>
      <point x="497.7" y="622.3" type="curve" smooth="yes"/>
      <point x="511" y="637"/>
      <point x="523.6" y="650.3"/>
      <point x="543.2" y="654.5" type="curve" smooth="yes"/>
      <point x="558.6" y="658"/>
      <point x="570.5" y="652.4"/>
      <point x="582.4" y="646.8" type="curve" smooth="yes"/>
      <point x="611.8" y="632.8"/>
      <point x="636.3" y="605.5"/>
      <point x="645.4" y="574.7" type="curve" smooth="yes"/>
      <point x="651" y="557.2"/>
      <point x="649.6" y="535.5"/>
      <point x="648.9" y="516.6" type="curve" smooth="yes"/>
      <point x="645.4" y="471.1"/>
      <point x="633.5" y="424.2"/>
      <point x="619.5" y="378" type="curve" smooth="yes"/>
      <point x="607.6" y="340.2"/>
      <point x="598.5" y="301.7"/>
      <point x="586.6" y="263.2" type="curve" smooth="yes"/>
      <point x="579.6" y="239.4"/>
      <point x="569.8" y="215.6"/>
      <point x="561.4" y="191.8" type="curve" smooth="yes"/>
      <point x="553.7" y="168"/>
      <point x="548.8" y="143.5"/>
      <point x="539" y="119.7" type="curve" smooth="yes"/>
      <point x="527.1" y="88.9004"/>
      <point x="518.7" y="57.4004"/>
      <point x="506.1" y="26.5996" type="curve" smooth="yes"/>
      <point x="502.6" y="17.5"/>
      <point x="497" y="-2.09961"/>
      <point x="488.6" y="-7.7002" type="curve" smooth="yes"/>
      <point x="474.6" y="-18.2002"/>
      <point x="452.2" y="-16.7998"/>
    </contour>
  </outline>
</glyph>
<glyph name="gcommaaccent" format="2">
  <advance width="542"/>
  <unicode hex="0123"/>
  <outline>
    <contour>
      <point x="281.4" y="688.1" type="line"/>
      <point x="282.1" y="687.4" type="line"/>
    </contour>
    <contour>
      <point x="553" y="688.1" type="line"/>
      <point x="553.7" y="687.4" type="line"/>
    </contour>
    <contour>
      <point x="237.3" y="681.8" type="curve"/>
      <point x="281.4" y="687.4" type="line"/>
      <point x="279.3" y="682.5"/>
      <point x="276.5" y="677.6"/>
      <point x="275.8" y="672.7" type="curve" smooth="yes"/>
      <point x="275.1" y="664.3"/>
      <point x="274.4" y="651.7"/>
      <point x="277.2" y="644.7" type="curve" smooth="yes"/>
      <point x="290.5" y="611.8"/>
      <point x="336.7" y="604.1"/>
      <point x="364" y="586.6" type="curve" smooth="yes"/>
      <point x="384.3" y="573.3"/>
      <point x="399" y="551.6"/>
      <point x="396.9" y="524.3" type="curve" smooth="yes"/>
      <point x="395.5" y="511"/>
      <point x="390.6" y="497.7"/>
      <point x="386.4" y="484.4" type="curve" smooth="yes"/>
      <point x="361.9" y="412.3"/>
      <point x="315.7" y="343"/>
      <point x="255.5" y="287" type="curve" smooth="yes"/>
      <point x="242.9" y="274.4"/>
      <point x="228.9" y="262.5"/>
      <point x="214.9" y="252" type="curve" smooth="yes"/>
      <point x="206.5" y="245"/>
      <point x="197.4" y="238.7"/>
      <point x="188.3" y="242.9" type="curve" smooth="yes"/>
      <point x="183.4" y="245"/>
      <point x="180.6" y="252.7"/>
      <point x="177.8" y="256.9" type="curve" smooth="yes"/>
      <point x="175" y="260.4"/>
      <point x="170.1" y="265.3"/>
      <point x="170.1" y="270.2" type="curve"/>
      <point x="169.4" y="275.1"/>
      <point x="177.1" y="279.3"/>
      <point x="180.6" y="282.1" type="curve" smooth="yes"/>
      <point x="191.8" y="290.5"/>
      <point x="202.3" y="300.3"/>
      <point x="212.8" y="310.1" type="curve" smooth="yes"/>
      <point x="244.3" y="338.8"/>
      <point x="288.4" y="383.6"/>
      <point x="282.8" y="424.2" type="curve" smooth="yes"/>
      <point x="282.1" y="434"/>
      <point x="262.5" y="441"/>
      <point x="254.8" y="445.2" type="curve" smooth="yes"/>
      <point x="228.2" y="457.8"/>
      <point x="198.1" y="467.6"/>
      <point x="178.5" y="488.6" type="curve" smooth="yes"/>
      <point x="142.8" y="526.4"/>
      <point x="182" y="598.5"/>
      <point x="212.8" y="645.4" type="curve" smooth="yes"/>
      <point x="220.5" y="657.3"/>
      <point x="230.3" y="669.2"/>
    </contour>
    <contour>
      <point x="508.2" y="681.8" type="curve"/>
      <point x="553" y="687.4" type="line"/>
      <point x="550.9" y="682.5"/>
      <point x="547.4" y="677.6"/>
      <point x="547.4" y="672.7" type="curve"/>
      <point x="546" y="664.3"/>
      <point x="546" y="651.7"/>
      <point x="548.8" y="644.7" type="curve" smooth="yes"/>
      <point x="561.4" y="611.8"/>
      <point x="608.3" y="604.1"/>
      <point x="635.6" y="586.6" type="curve" smooth="yes"/>
      <point x="655.9" y="573.3"/>
      <point x="669.9" y="551.6"/>
      <point x="667.8" y="524.3" type="curve" smooth="yes"/>
      <point x="667.1" y="511"/>
      <point x="662.2" y="497.7"/>
      <point x="657.3" y="484.4" type="curve" smooth="yes"/>
      <point x="633.5" y="412.3"/>
      <point x="587.3" y="343"/>
      <point x="527.1" y="287" type="curve" smooth="yes"/>
      <point x="513.8" y="274.4"/>
      <point x="500.5" y="262.5"/>
      <point x="486.5" y="252" type="curve" smooth="yes"/>
      <point x="478.1" y="245"/>
      <point x="469" y="238.7"/>
      <point x="459.9" y="242.9" type="curve" smooth="yes"/>
      <point x="455" y="245"/>
      <point x="452.2" y="252.7"/>
      <point x="448.7" y="256.9" type="curve"/>
      <point x="446.6" y="260.4"/>
      <point x="441.7" y="265.3"/>
      <point x="441" y="270.2" type="curve"/>
      <point x="441" y="275.1"/>
      <point x="448.7" y="279.3"/>
      <point x="451.5" y="282.1" type="curve"/>
      <point x="462.7" y="290.5"/>
      <point x="473.9" y="300.3"/>
      <point x="484.4" y="310.1" type="curve" smooth="yes"/>
      <point x="515.2" y="338.8"/>
      <point x="560" y="383.6"/>
      <point x="554.4" y="424.2" type="curve" smooth="yes"/>
      <point x="553" y="434"/>
      <point x="534.1" y="441"/>
      <point x="525.7" y="445.2" type="curve" smooth="yes"/>
      <point x="499.8" y="457.8"/>
      <point x="469" y="467.6"/>
      <point x="449.4" y="488.6" type="curve" smooth="yes"/>
      <point x="414.4" y="526.4"/>
      <point x="452.9" y="598.5"/>
      <point x="483.7" y="645.4" type="curve" smooth="yes"/>
      <point x="491.4" y="657.3"/>
      <point x="501.2" y="669.2"/>
    </contour>
  </outline>
</glyph>
<glyph name="Hcircumflex" format="2">
  <advance width="270"/>
  <unicode hex="0124"/>
  <outline>
    <contour>
      <point x="281.4" y="688.1" type="line"/>
      <point x="282.1" y="687.4" type="line"/>
    </contour>
    <contour>
      <point x="237.3" y="681.8" type="curve"/>
      <point x="281.4" y="687.4" type="line"/>
      <point x="279.3" y="682.5"/>
      <point x="276.5" y="677.6"/>
      <point x="275.8" y="672.7" type="curve" smooth="yes"/>
      <point x="275.1" y="664.3"/>
      <point x="274.4" y="651.7"/>
      <point x="277.2" y="644.7" type="curve" smooth="yes"/>
      <point x="290.5" y="611.8"/>
      <point x="336.7" y="604.1"/>
      <point x="364" y="586.6" type="curve" smooth="yes"/>
      <point x="384.3" y="573.3"/>
      <point x="399" y="551.6"/>
      <point x="396.9" y="524.3" type="curve" smooth="yes"/>
      <point x="395.5" y="511"/>
      <point x="390.6" y="497.7"/>
      <point x="386.4" y="484.4" type="curve" smooth="yes"/>
      <point x="361.9" y="412.3"/>
      <point x="315.7" y="343"/>
      <point x="255.5" y="287" type="curve" smooth="yes"/>
      <point x="242.9" y="274.4"/>
      <point x="228.9" y="262.5"/>
      <point x="214.9" y="252" type="curve" smooth="yes"/>
      <point x="206.5" y="245"/>
      <point x="197.4" y="238.7"/>
      <point x="188.3" y="242.9" type="curve" smooth="yes"/>
      <point x="183.4" y="245"/>
      <point x="180.6" y="252.7"/>
      <point x="177.8" y="256.9" type="curve" smooth="yes"/>
      <point x="175" y="260.4"/>
      <point x="170.1" y="265.3"/>
      <point x="170.1" y="270.2" type="curve"/>
      <point x="169.4" y="275.1"/>
      <point x="177.1" y="279.3"/>
      <point x="180.6" y="282.1" type="curve" smooth="yes"/>
      <point x="191.8" y="290.5"/>
      <point x="202.3" y="300.3"/>
      <point x="212.8" y="310.1" type="curve" smooth="yes"/>
      <point x="244.3" y="338.8"/>
      <point x="288.4" y="383.6"/>
      <point x="282.8" y="424.2" type="curve" smooth="yes"/>
      <point x="282.1" y="434"/>
      <point x="262.5" y="441"/>
      <point x="254.8" y="445.2" type="curve" smooth="yes"/>
      <point x="228.2" y="457.8"/>
      <point x="198.1" y="467.6"/>
      <point x="178.5" y="488.6" type="curve" smooth="yes"/>
      <point x="142.8" y="526.4"/>
      <point x="182" y="598.5"/>
      <point x="212.8" y="645.4" type="curve" smooth="yes"/>
      <point x="220.5" y="657.3"/>
      <point x="230.3" y="669.2"/>
    </contour>
    <contour>
      <point x="115.5" y="208.6" type="curve" smooth="yes"/>
      <point x="156.8" y="215.6"/>
      <point x="167.3" y="163.1"/>
      <point x="126.7" y="139.3" type="curve" smooth="yes"/>
      <point x="121.1" y="135.8"/>
      <point x="114.8" y="133.7"/>
      <point x="108.5" y="133" type="curve" smooth="yes"/>
      <point x="58.7998" y="124.6"/>
      <point x="65.0996" y="200.2"/>
    </contour>
  </outline>
</glyph>
